<?xml version="1.0" encoding="UTF-8" standalone="no"?>
<!-- Created with Inkscape (http://www.inkscape.org/) -->

<svg
   xmlns:dc="http://purl.org/dc/elements/1.1/"
   xmlns:cc="http://creativecommons.org/ns#"
   xmlns:rdf="http://www.w3.org/1999/02/22-rdf-syntax-ns#"
   xmlns:svg="http://www.w3.org/2000/svg"
   xmlns="http://www.w3.org/2000/svg"
   xmlns:xlink="http://www.w3.org/1999/xlink"
   xmlns:sodipodi="http://sodipodi.sourceforge.net/DTD/sodipodi-0.dtd"
   xmlns:inkscape="http://www.inkscape.org/namespaces/inkscape"
   width="301.54688"
   height="452.89258"
   viewBox="0 0 79.784274 119.82783"
   version="1.1"
   id="color dots"
   inkscape:version="0.92.5 (2060ec1f9f, 2020-04-08)"
   sodipodi:docname="lolos.svg"
   inkscape:export-filename="C:\Users\Usuario\design\publi grafica\ARTE 2D.png"
   inkscape:export-xdpi="99"
   inkscape:export-ydpi="99">
  <title
     id="title11458">Color dots</title>
  <sodipodi:namedview
     id="base"
     pagecolor="#ffffff"
     bordercolor="#666666"
     borderopacity="1.0"
     inkscape:pageopacity="0.0"
     inkscape:pageshadow="2"
     inkscape:zoom="1.28"
     inkscape:cx="-134.38232"
     inkscape:cy="230.26529"
     inkscape:document-units="mm"
     inkscape:current-layer="layer1"
     showgrid="false"
     units="px"
     showguides="false"
     inkscape:guide-bbox="true"
     inkscape:lockguides="true"
     inkscape:window-width="1600"
     inkscape:window-height="837"
     inkscape:window-x="-4"
     inkscape:window-y="-4"
     inkscape:window-maximized="1"
     fit-margin-top="0"
     fit-margin-left="0"
     fit-margin-right="0"
     fit-margin-bottom="0">
    <inkscape:grid
       id="grid815"
       type="xygrid"
       originx="0.99993892"
       originy="-118.25067" />
    <sodipodi:guide
       inkscape:color="rgb(0,0,255)"
       inkscape:label=""
       inkscape:locked="true"
       id="guide817"
       orientation="0,1"
       position="121.70833,238.125" />
    <sodipodi:guide
       inkscape:color="rgb(0,0,255)"
       inkscape:label=""
       inkscape:locked="true"
       id="guide819"
       orientation="1,0"
       position="0,148.16667" />
    <sodipodi:guide
       inkscape:color="rgb(0,0,255)"
       inkscape:label=""
       inkscape:locked="true"
       id="guide821"
       orientation="0,1"
       position="121.70833,0" />
    <sodipodi:guide
       inkscape:color="rgb(0,0,255)"
       inkscape:label=""
       inkscape:locked="true"
       id="guide823"
       orientation="1,0"
       position="238.125,111.125" />
    <sodipodi:guide
       inkscape:locked="true"
       id="guide3607"
       orientation="-0.70710678,0.70710678"
       position="-1354.6666,2794.0001" />
    <sodipodi:guide
       inkscape:locked="true"
       id="guide3609"
       orientation="-0.70710678,0.70710678"
       position="-1354.6666,2540.0001" />
    <sodipodi:guide
       inkscape:locked="true"
       id="guide3611"
       orientation="-0.70710678,0.70710678"
       position="-1100.6666,2540.0001" />
    <sodipodi:guide
       inkscape:locked="true"
       id="guide3613"
       orientation="-0.70710678,0.70710678"
       position="-846.66663,2540.0001" />
    <sodipodi:guide
       inkscape:locked="true"
       id="guide3615"
       orientation="-0.70710678,0.70710678"
       position="-592.66664,2540.0001" />
    <sodipodi:guide
       inkscape:locked="true"
       id="guide3617"
       orientation="-0.70710678,0.70710678"
       position="-423.33332,2455.3334" />
    <sodipodi:guide
       inkscape:locked="true"
       id="guide3619"
       orientation="-0.70710678,0.70710678"
       position="-338.66665,2286.0001" />
    <sodipodi:guide
       inkscape:locked="true"
       id="guide3621"
       orientation="-0.70710678,0.70710678"
       position="-169.33333,2286.0001" />
    <sodipodi:guide
       inkscape:locked="true"
       id="guide3623"
       orientation="-0.70710678,0.70710678"
       position="84.666663,2286.0001" />
    <sodipodi:guide
       inkscape:locked="true"
       id="guide3625"
       orientation="-0.70710678,0.70710678"
       position="338.66665,2286.0001" />
    <sodipodi:guide
       inkscape:locked="true"
       id="guide3627"
       orientation="-0.70710678,0.70710678"
       position="846.66663,2540.0001" />
    <sodipodi:guide
       inkscape:locked="true"
       id="guide3629"
       orientation="-0.70710678,0.70710678"
       position="1100.6666,2540.0001" />
    <sodipodi:guide
       inkscape:locked="true"
       id="guide3631"
       orientation="-0.70710678,0.70710678"
       position="1354.6666,2540.0001" />
    <sodipodi:guide
       inkscape:locked="true"
       id="guide3633"
       orientation="-0.70710678,0.70710678"
       position="1354.6666,2286.0001" />
  </sodipodi:namedview>
  <defs
     id="defs2">
    <linearGradient
       id="linearGradient839"
       inkscape:collect="always">
      <stop
         id="stop835"
         offset="0"
         style="stop-color:#f6f6f6;stop-opacity:1" />
      <stop
         id="stop837"
         offset="1"
         style="stop-color:#161616;stop-opacity:1" />
    </linearGradient>
    <radialGradient
       gradientUnits="userSpaceOnUse"
       r="126.13179"
       fy="177.79315"
       fx="120.26516"
       cy="177.79315"
       cx="120.26516"
       id="radialGradient841"
       xlink:href="#linearGradient839"
       inkscape:collect="always" />
  </defs>
  <metadata
     id="metadata5">
    <rdf:RDF>
      <cc:Work
         rdf:about="">
        <dc:format>image/svg+xml</dc:format>
        <dc:type
           rdf:resource="http://purl.org/dc/dcmitype/StillImage" />
        <dc:title>Color dots</dc:title>
        <dc:date>06/08/21</dc:date>
        <dc:creator>
          <cc:Agent>
            <dc:title>La Goleta</dc:title>
          </cc:Agent>
        </dc:creator>
        <dc:rights>
          <cc:Agent>
            <dc:title>Public domain</dc:title>
          </cc:Agent>
        </dc:rights>
        <dc:source>Argentina</dc:source>
        <dc:language>English</dc:language>
      </cc:Work>
    </rdf:RDF>
  </metadata>
  <g
     transform="translate(0.99993896,-58.921492)"
     id="layer1"
     inkscape:groupmode="layer"
     inkscape:label="Capa 1">
    <g
       transform="matrix(0.04159089,0,0,0.04159089,58.898826,166.36596)"
       id="g3639"
       style="fill:#28220b;fill-opacity:1">
      <path
         style="opacity:1;fill:#28220b;fill-opacity:1;stroke:none;stroke-width:0.33791894;stroke-miterlimit:4;stroke-dasharray:none;stroke-dashoffset:30.23622131;stroke-opacity:1;paint-order:fill markers stroke"
         d="m 203.47266,415.33594 a 18.741495,18.741495 0 0 0 -9.1836,2.42968 h -6.94922 v 6.8125 a 18.741495,18.741495 0 0 0 -2.60937,9.49805 18.741495,18.741495 0 0 0 2.60937,9.4961 v 6.63476 h 6.63086 a 18.741495,18.741495 0 0 0 9.50196,2.61133 18.741495,18.741495 0 0 0 9.49804,-2.61133 h 6.81055 v -6.91797 a 18.741495,18.741495 0 0 0 2.43164,-9.21289 18.741495,18.741495 0 0 0 -2.43164,-9.18555 v -7.125 h -7.10156 a 18.741495,18.741495 0 0 0 -9.20703,-2.42968 z m 37.76367,0.25 a 18.741495,18.741495 0 0 0 -9.1836,2.42968 h -6.94726 v 6.8086 a 18.741495,18.741495 0 0 0 -2.61133,9.50195 18.741495,18.741495 0 0 0 2.61133,9.49805 v 6.63281 h 6.62891 a 18.741495,18.741495 0 0 0 9.50195,2.61133 18.741495,18.741495 0 0 0 9.5,-2.61133 h 6.81055 v -6.92187 a 18.741495,18.741495 0 0 0 2.40234,-8.61524 18.741495,18.741495 0 0 0 2.58789,8.9043 v 6.63281 h 6.62891 a 18.741495,18.741495 0 0 0 9.50195,2.61133 18.741495,18.741495 0 0 0 9.5,-2.61133 h 6.81055 v -6.92187 a 18.741495,18.741495 0 0 0 2.43164,-9.20899 18.741495,18.741495 0 0 0 -2.43164,-9.18555 v -7.125 h -7.10157 a 18.741495,18.741495 0 0 0 -9.20898,-2.42968 18.741495,18.741495 0 0 0 -9.18359,2.42968 h -6.94727 v 6.81055 a 18.741495,18.741495 0 0 0 -2.58008,8.89844 18.741495,18.741495 0 0 0 -2.41015,-8.58399 v -7.125 h -7.10157 a 18.741495,18.741495 0 0 0 -9.20898,-2.42968 z"
         transform="matrix(6.3615694,0,0,6.3615694,-1416.1473,-2584.4837)"
         id="circle3635"
         inkscape:connector-curvature="0" />
    </g>
    <g
       id="g3645"
       transform="matrix(0.04186113,0,0,0.04159089,58.92937,156.43654)"
       style="fill:#504416;fill-opacity:1">
      <path
         style="opacity:1;fill:#504416;fill-opacity:1;stroke:none;stroke-width:0.33901498;stroke-miterlimit:4;stroke-dasharray:none;stroke-dashoffset:30.23622131;stroke-opacity:1;paint-order:fill markers stroke"
         d="m 203.70898,377.80664 a 18.863269,18.741495 0 0 0 -9.24609,2.43164 h -6.99023 v 6.8086 a 18.863269,18.741495 0 0 0 -2.62696,9.50195 18.863269,18.741495 0 0 0 2.62696,9.49609 v 6.63281 h 6.66992 a 18.863269,18.741495 0 0 0 9.5664,2.61133 18.863269,18.741495 0 0 0 9.5625,-2.61133 h 6.85157 v -6.91992 a 18.863269,18.741495 0 0 0 2.44922,-9.20898 18.863269,18.741495 0 0 0 -2.44922,-9.18945 v -7.1211 h -7.14649 a 18.863269,18.741495 0 0 0 -9.26758,-2.43164 z m 37.76368,0.25 a 18.863269,18.741495 0 0 0 -9.24219,2.42969 h -6.99414 v 6.81055 a 18.863269,18.741495 0 0 0 -2.62695,9.50195 18.863269,18.741495 0 0 0 2.62695,9.49609 v 6.63281 h 6.67187 a 18.863269,18.741495 0 0 0 9.56446,2.61133 18.863269,18.741495 0 0 0 9.56054,-2.61133 h 6.85547 v -6.91992 a 18.863269,18.741495 0 0 0 2.30469,-7.02148 18.863269,18.741495 0 0 0 2.47461,7.30859 v 6.63281 h 6.67187 a 18.863269,18.741495 0 0 0 9.56446,2.61133 18.863269,18.741495 0 0 0 9.5625,-2.61133 h 6.85351 v -6.91992 a 18.863269,18.741495 0 0 0 2.44727,-9.20898 18.863269,18.741495 0 0 0 -2.44727,-9.1875 v -7.125 h -7.15039 a 18.863269,18.741495 0 0 0 -9.26562,-2.42969 18.863269,18.741495 0 0 0 -9.24219,2.42969 h -6.99414 v 6.8125 a 18.863269,18.741495 0 0 0 -2.48438,7.31445 18.863269,18.741495 0 0 0 -2.29492,-7 v -7.12695 h -7.15234 a 18.863269,18.741495 0 0 0 -9.26367,-2.42969 z"
         transform="matrix(6.3205015,0,0,6.3615694,-1407.7348,-2345.7434)"
         id="circle3641"
         inkscape:connector-curvature="0" />
    </g>
    <g
       transform="matrix(0.04186113,0,0,0.04159089,58.838769,146.47026)"
       id="g3651"
       style="fill:#504416;fill-opacity:1">
      <path
         style="opacity:1;fill:#504416;fill-opacity:1;stroke:none;stroke-width:0.33901498;stroke-miterlimit:4;stroke-dasharray:none;stroke-dashoffset:30.23622131;stroke-opacity:1;paint-order:fill markers stroke"
         d="m 241.13086,340.38867 a 18.863269,18.741495 0 0 0 -9.24219,2.42969 h -6.99414 v 6.81055 a 18.863269,18.741495 0 0 0 -2.62695,9.50195 18.863269,18.741495 0 0 0 2.62695,9.49609 v 6.63282 h 6.67188 a 18.863269,18.741495 0 0 0 9.56445,2.61132 18.863269,18.741495 0 0 0 9.56055,-2.61132 h 6.85547 v -6.91993 a 18.863269,18.741495 0 0 0 2.30468,-7.01757 18.863269,18.741495 0 0 0 2.47461,7.30468 v 6.63282 h 6.67188 a 18.863269,18.741495 0 0 0 9.56445,2.61132 18.863269,18.741495 0 0 0 9.56055,-2.61132 h 6.85547 v -6.91993 a 18.863269,18.741495 0 0 0 2.44726,-9.20898 18.863269,18.741495 0 0 0 -2.44726,-9.18555 v -7.12695 h -7.15235 a 18.863269,18.741495 0 0 0 -9.26367,-2.42969 18.863269,18.741495 0 0 0 -9.24219,2.42969 h -6.99414 v 6.81055 a 18.863269,18.741495 0 0 0 -2.48437,7.3125 18.863269,18.741495 0 0 0 -2.29492,-6.9961 v -7.12695 h -7.15235 a 18.863269,18.741495 0 0 0 -9.26367,-2.42969 z"
         transform="matrix(6.3205015,0,0,6.3615694,-1405.5705,-2106.1169)"
         id="circle3647"
         inkscape:connector-curvature="0" />
    </g>
    <g
       id="g3657"
       transform="matrix(0.04159089,0,0,0.04159089,68.802657,166.36596)"
       style="fill:#28220b;fill-opacity:1" />
    <g
       transform="matrix(0.04186113,0,0,0.04159089,68.833201,156.43654)"
       id="g3663"
       style="fill:#504416;fill-opacity:1" />
    <g
       id="g3669"
       transform="matrix(0.04186113,0,0,0.04159089,68.742599,146.47026)"
       style="fill:#a0892c;fill-opacity:1" />
    <g
       transform="matrix(0.04159089,0,0,0.04159089,58.898826,136.43438)"
       id="g3675"
       style="fill:#a0892c;fill-opacity:1">
      <path
         style="opacity:1;fill:#a0892c;fill-opacity:1;stroke:none;stroke-width:0.33791894;stroke-miterlimit:4;stroke-dasharray:none;stroke-dashoffset:30.23622131;stroke-opacity:1;paint-order:fill markers stroke"
         d="m 241.23633,302.45703 a 18.741495,18.741495 0 0 0 -9.1836,2.43164 h -6.94726 v 6.8086 a 18.741495,18.741495 0 0 0 -2.61133,9.50195 18.741495,18.741495 0 0 0 2.61133,9.49805 v 6.63085 h 6.62695 a 18.741495,18.741495 0 0 0 9.50391,2.61329 18.741495,18.741495 0 0 0 9.5039,-2.61329 h 6.80665 v -6.92187 a 18.741495,18.741495 0 0 0 2.43164,-9.20703 18.741495,18.741495 0 0 0 -2.43164,-9.18555 v -7.125 h -7.10157 a 18.741495,18.741495 0 0 0 -9.20898,-2.43164 z"
         transform="matrix(6.3615694,0,0,6.3615694,-1416.1473,-1864.817)"
         id="circle3671"
         inkscape:connector-curvature="0" />
    </g>
    <g
       id="g3681"
       transform="matrix(0.04186113,0,0,0.04159089,58.92937,126.50496)"
       style="fill:#c8ab37;fill-opacity:1">
      <path
         style="opacity:1;fill:#c8ab37;fill-opacity:1;stroke:none;stroke-width:0.33901498;stroke-miterlimit:4;stroke-dasharray:none;stroke-dashoffset:30.23622131;stroke-opacity:1;paint-order:fill markers stroke"
         d="m 241.47266,264.92969 a 18.863269,18.741495 0 0 0 -9.24219,2.42969 h -6.99414 v 6.81054 a 18.863269,18.741495 0 0 0 -2.62695,9.5 18.863269,18.741495 0 0 0 2.62695,9.49805 v 6.63281 h 6.67383 a 18.863269,18.741495 0 0 0 9.5625,2.61133 18.863269,18.741495 0 0 0 9.56054,-2.61133 h 6.85547 v -6.91992 a 18.863269,18.741495 0 0 0 2.44727,-9.21094 18.863269,18.741495 0 0 0 -2.44727,-9.18359 v -7.12695 h -7.14844 a 18.863269,18.741495 0 0 0 -9.26757,-2.42969 z"
         transform="matrix(6.3205015,0,0,6.3615694,-1407.7348,-1626.0767)"
         id="circle3677"
         inkscape:connector-curvature="0" />
    </g>
    <g
       transform="matrix(0.04186113,0,0,0.04159089,58.838769,116.53869)"
       id="g3687"
       style="fill:#decd87;fill-opacity:1">
      <path
         style="opacity:1;fill:#decd87;fill-opacity:1;stroke:none;stroke-width:0.33901498;stroke-miterlimit:4;stroke-dasharray:none;stroke-dashoffset:30.23622131;stroke-opacity:1;paint-order:fill markers stroke"
         d="m 241.13086,227.26172 a 18.863269,18.741495 0 0 0 -9.24219,2.42969 h -6.99414 v 6.81054 a 18.863269,18.741495 0 0 0 -2.62695,9.50196 18.863269,18.741495 0 0 0 2.62695,9.49609 v 6.63281 h 6.67188 a 18.863269,18.741495 0 0 0 9.56445,2.61133 18.863269,18.741495 0 0 0 9.56055,-2.61133 h 6.85547 v -6.91992 a 18.863269,18.741495 0 0 0 2.44726,-9.20898 18.863269,18.741495 0 0 0 -2.44726,-9.18555 v -7.12695 h -7.15235 a 18.863269,18.741495 0 0 0 -9.26367,-2.42969 z"
         transform="matrix(6.3205015,0,0,6.3615694,-1405.5705,-1386.4504)"
         id="circle3683"
         inkscape:connector-curvature="0" />
    </g>
    <g
       id="g3693"
       transform="matrix(0.04159089,0,0,0.04159089,68.802657,136.45639)"
       style="fill:#504416;fill-opacity:1">
      <path
         style="opacity:1;fill:#504416;fill-opacity:1;stroke:none;stroke-width:0.33791894;stroke-miterlimit:4;stroke-dasharray:none;stroke-dashoffset:30.23622131;stroke-opacity:1;paint-order:fill markers stroke"
         d="m 278.66797,302.54102 a 18.741495,18.741495 0 0 0 -9.18164,2.42968 h -6.94922 v 6.81055 a 18.741495,18.741495 0 0 0 -2.60938,9.50195 18.741495,18.741495 0 0 0 2.60938,9.4961 v 6.63281 h 6.62695 a 18.741495,18.741495 0 0 0 9.50391,2.61133 18.741495,18.741495 0 0 0 9.5,-2.61133 h 6.81055 v -6.92188 a 18.741495,18.741495 0 0 0 2.43164,-9.20703 18.741495,18.741495 0 0 0 -2.43164,-9.1875 v -7.125 H 287.875 a 18.741495,18.741495 0 0 0 -9.20703,-2.42968 z"
         transform="matrix(6.3615694,0,0,6.3615694,-1654.2723,-1865.3462)"
         id="circle3689"
         inkscape:connector-curvature="0" />
    </g>
    <g
       transform="matrix(0.04186113,0,0,0.04159089,68.833201,126.52697)"
       id="g3699"
       style="fill:#a0892c;fill-opacity:1">
      <path
         style="opacity:1;fill:#a0892c;fill-opacity:1;stroke:none;stroke-width:0.33901498;stroke-miterlimit:4;stroke-dasharray:none;stroke-dashoffset:30.23622131;stroke-opacity:1;paint-order:fill markers stroke"
         d="m 278.9043,265.01172 a 18.863269,18.741495 0 0 0 -9.24414,2.43164 h -6.99219 v 6.8125 a 18.863269,18.741495 0 0 0 -2.62695,9.49805 18.863269,18.741495 0 0 0 2.62695,9.49804 v 6.63086 h 6.66992 a 18.863269,18.741495 0 0 0 9.56641,2.61328 18.863269,18.741495 0 0 0 9.5664,-2.61328 h 6.84961 v -6.91992 a 18.863269,18.741495 0 0 0 2.44727,-9.20898 18.863269,18.741495 0 0 0 -2.44727,-9.1875 v -7.12305 h -7.14648 a 18.863269,18.741495 0 0 0 -9.26953,-2.43164 z"
         transform="matrix(6.3205015,0,0,6.3615694,-1644.3226,-1626.6059)"
         id="circle3695"
         inkscape:connector-curvature="0" />
    </g>
    <g
       id="g3705"
       transform="matrix(0.04186113,0,0,0.04159089,68.742599,116.56068)"
       style="fill:#c8ab37;fill-opacity:1">
      <path
         style="opacity:1;fill:#c8ab37;fill-opacity:1;stroke:none;stroke-width:0.33901498;stroke-miterlimit:4;stroke-dasharray:none;stroke-dashoffset:30.23622131;stroke-opacity:1;paint-order:fill markers stroke"
         d="m 278.5625,227.34375 a 18.863269,18.741495 0 0 0 -9.24414,2.43164 h -6.99219 v 6.81055 a 18.863269,18.741495 0 0 0 -2.62695,9.5 18.863269,18.741495 0 0 0 2.62695,9.49804 v 6.63086 h 6.66992 a 18.863269,18.741495 0 0 0 9.56641,2.61328 18.863269,18.741495 0 0 0 9.56445,-2.61328 h 6.85157 v -6.91992 a 18.863269,18.741495 0 0 0 2.44726,-9.20898 18.863269,18.741495 0 0 0 -2.44726,-9.1836 v -7.12695 h -7.14844 a 18.863269,18.741495 0 0 0 -9.26758,-2.43164 z"
         transform="matrix(6.3205015,0,0,6.3615694,-1642.1582,-1386.9791)"
         id="circle3701"
         inkscape:connector-curvature="0" />
    </g>
    <g
       id="g3711"
       transform="matrix(0.04159089,0,0,0.04159089,39.003133,166.29993)"
       style="fill:#504416;fill-opacity:1">
      <path
         style="opacity:1;fill:#504416;fill-opacity:1;stroke:none;stroke-width:2.14969468;stroke-miterlimit:4;stroke-dasharray:none;stroke-dashoffset:30.23622131;stroke-opacity:1;paint-order:fill markers stroke"
         d="M 237.72104,178.51486 A 119.22532,119.22532 0 0 1 118.49572,297.74018 119.22532,119.22532 0 0 1 -0.729599,178.51486 119.22532,119.22532 0 0 1 118.49572,59.289543 119.22532,119.22532 0 0 1 237.72104,178.51486 Z"
         id="circle3707"
         inkscape:connector-curvature="0" />
      <path
         style="opacity:1;fill:#504416;fill-opacity:1;stroke:none;stroke-width:2;stroke-miterlimit:4;stroke-dasharray:none;stroke-dashoffset:30.23622131;stroke-opacity:1;paint-order:fill markers stroke"
         d="M 15.875,74.749985 H 222.25 V 281.12498 H 15.875 Z"
         id="rect3709"
         inkscape:connector-curvature="0" />
    </g>
    <g
       transform="matrix(0.04186113,0,0,0.04159089,39.033673,156.37052)"
       id="g3717"
       style="fill:#a0892c;fill-opacity:1">
      <path
         style="opacity:1;fill:#a0892c;fill-opacity:1;stroke:none;stroke-width:0.33901498;stroke-miterlimit:4;stroke-dasharray:none;stroke-dashoffset:30.23622131;stroke-opacity:1;paint-order:fill markers stroke"
         d="m 203.36523,340.13867 a 18.863269,18.741495 0 0 0 -9.24414,2.43164 h -6.99218 v 6.8125 a 18.863269,18.741495 0 0 0 -2.62696,9.49805 18.863269,18.741495 0 0 0 2.62696,9.49609 v 6.63282 h 6.66992 a 18.863269,18.741495 0 0 0 9.5664,2.61328 18.863269,18.741495 0 0 0 9.5625,-2.61328 h 6.85352 v -6.91993 a 18.863269,18.741495 0 0 0 2.44727,-9.20898 18.863269,18.741495 0 0 0 -2.44727,-9.1875 v -7.12305 h -7.14648 a 18.863269,18.741495 0 0 0 -9.26954,-2.43164 z m -37.08789,37.66797 a 18.863269,18.741495 0 0 0 -9.24609,2.43164 h -6.99023 v 6.8086 a 18.863269,18.741495 0 0 0 -2.62696,9.50195 18.863269,18.741495 0 0 0 2.62696,9.49609 v 6.63281 h 6.66992 a 18.863269,18.741495 0 0 0 9.5664,2.61133 18.863269,18.741495 0 0 0 9.56055,-2.61133 h 6.85352 v -6.91992 a 18.863269,18.741495 0 0 0 2.44921,-9.20898 18.863269,18.741495 0 0 0 -2.44921,-9.18945 v -7.1211 h -7.14649 a 18.863269,18.741495 0 0 0 -9.26758,-2.43164 z m -38.16796,36.94727 a 18.741495,18.741495 0 0 0 -9.1836,2.42968 h -6.94726 v 6.8086 a 18.741495,18.741495 0 0 0 -2.61133,9.50195 18.741495,18.741495 0 0 0 2.61133,9.49805 v 6.63281 h 6.6289 a 18.741495,18.741495 0 0 0 9.50196,2.61133 18.741495,18.741495 0 0 0 9.5,-2.61133 h 6.80859 v -6.91797 a 18.741495,18.741495 0 0 0 2.43359,-9.21289 18.741495,18.741495 0 0 0 -2.43359,-9.1875 v -7.12305 h -7.10156 a 18.741495,18.741495 0 0 0 -9.20703,-2.42968 z"
         transform="matrix(6.3205015,0,0,6.3615694,-932.45627,-2344.1561)"
         id="circle3713"
         inkscape:connector-curvature="0" />
    </g>
    <g
       id="g3723"
       transform="matrix(0.04186113,0,0,0.04159089,38.943072,146.40424)"
       style="fill:#c8ab37;fill-opacity:1">
      <path
         style="opacity:1;fill:#c8ab37;fill-opacity:1;stroke:none;stroke-width:0.33901498;stroke-miterlimit:4;stroke-dasharray:none;stroke-dashoffset:30.23622131;stroke-opacity:1;paint-order:fill markers stroke"
         d="m 203.47266,302.29102 a 18.741495,18.741495 0 0 0 -9.1875,2.43164 h -6.94532 v 6.81054 a 18.741495,18.741495 0 0 0 -2.60937,9.5 18.741495,18.741495 0 0 0 2.60937,9.49414 v 6.63477 h 6.62891 a 18.741495,18.741495 0 0 0 9.50391,2.61328 18.741495,18.741495 0 0 0 9.5,-2.61328 h 6.80859 v -6.91797 a 18.741495,18.741495 0 0 0 2.43164,-9.21094 18.741495,18.741495 0 0 0 -2.43164,-9.1875 v -7.12304 h -7.10156 a 18.741495,18.741495 0 0 0 -9.20703,-2.43164 z m -37.53907,37.84765 a 18.863269,18.741495 0 0 0 -9.24414,2.43164 h -6.99218 v 6.8125 a 18.863269,18.741495 0 0 0 -2.62696,9.49805 18.863269,18.741495 0 0 0 2.62696,9.49609 v 6.63282 h 6.66992 a 18.863269,18.741495 0 0 0 9.5664,2.61328 18.863269,18.741495 0 0 0 9.5625,-2.61328 h 6.85352 v -6.91993 a 18.863269,18.741495 0 0 0 2.44727,-9.20898 18.863269,18.741495 0 0 0 -2.44727,-9.1875 v -7.12305 h -7.14649 a 18.863269,18.741495 0 0 0 -9.26953,-2.43164 z m -37.58789,37.08594 a 18.863269,18.741495 0 0 0 -9.24218,2.42969 h -6.99414 v 6.81054 a 18.863269,18.741495 0 0 0 -2.62696,9.50196 18.863269,18.741495 0 0 0 2.62696,9.49609 v 6.63281 h 6.67187 a 18.863269,18.741495 0 0 0 9.56445,2.61133 18.863269,18.741495 0 0 0 9.56055,-2.61133 h 6.85547 v -6.91992 a 18.863269,18.741495 0 0 0 2.44726,-9.20898 18.863269,18.741495 0 0 0 -2.44726,-9.18555 v -7.12695 h -7.15234 a 18.863269,18.741495 0 0 0 -9.26368,-2.42969 z m -37.667966,37.5293 a 18.741495,18.741495 0 0 0 -9.183593,2.42968 h -6.947266 v 6.8086 a 18.741495,18.741495 0 0 0 -2.611328,9.50195 18.741495,18.741495 0 0 0 2.611328,9.5 v 6.63086 h 6.628906 a 18.741495,18.741495 0 0 0 9.501953,2.61133 18.741495,18.741495 0 0 0 9.498046,-2.61133 h 6.81055 v -6.91797 a 18.741495,18.741495 0 0 0 2.43359,-9.21289 18.741495,18.741495 0 0 0 -2.43359,-9.1875 v -7.12305 h -7.101564 a 18.741495,18.741495 0 0 0 -9.207032,-2.42968 z"
         transform="matrix(6.3205015,0,0,6.3615694,-930.29194,-2104.5295)"
         id="circle3719"
         inkscape:connector-curvature="0" />
    </g>
    <g
       transform="matrix(0.04159089,0,0,0.04159089,48.906964,166.29993)"
       id="g3729"
       style="fill:#28220b;fill-opacity:1" />
    <g
       id="g3735"
       transform="matrix(0.04186113,0,0,0.04159089,48.937504,156.37052)"
       style="fill:#504416;fill-opacity:1" />
    <g
       transform="matrix(0.04186113,0,0,0.04159089,48.846902,146.40424)"
       id="g3741"
       style="fill:#a0892c;fill-opacity:1" />
    <g
       id="g3747"
       transform="matrix(0.04159089,0,0,0.04159089,39.003133,136.36836)"
       style="fill:#decd87;fill-opacity:1">
      <path
         style="opacity:1;fill:#decd87;fill-opacity:1;stroke:none;stroke-width:0.33791894;stroke-miterlimit:4;stroke-dasharray:none;stroke-dashoffset:30.23622131;stroke-opacity:1;paint-order:fill markers stroke"
         d="m 203.70898,264.76367 a 18.863269,18.741495 0 0 0 -9.24218,2.42969 h -6.99414 v 6.81055 a 18.863269,18.741495 0 0 0 -2.62696,9.5 18.863269,18.741495 0 0 0 2.62696,9.49804 v 6.63282 h 6.67187 a 18.863269,18.741495 0 0 0 9.56445,2.61132 18.863269,18.741495 0 0 0 9.56055,-2.61132 h 6.85352 v -6.91993 a 18.863269,18.741495 0 0 0 2.44922,-9.21093 18.863269,18.741495 0 0 0 -2.44922,-9.1875 v -7.12305 h -7.14649 a 18.863269,18.741495 0 0 0 -9.26758,-2.42969 z m -37.66796,37.44531 a 18.741495,18.741495 0 0 0 -9.1836,2.42969 h -6.94922 v 6.8125 a 18.741495,18.741495 0 0 0 -2.60937,9.49805 18.741495,18.741495 0 0 0 2.60937,9.49609 v 6.63477 h 6.62891 a 18.741495,18.741495 0 0 0 9.50391,2.61133 18.741495,18.741495 0 0 0 9.49804,-2.61133 h 6.81055 v -6.91797 a 18.741495,18.741495 0 0 0 2.43164,-9.21289 18.741495,18.741495 0 0 0 -2.43164,-9.18555 v -7.125 h -7.10156 a 18.741495,18.741495 0 0 0 -9.20703,-2.42969 z m -38.03711,37.34766 a 18.863269,18.741495 0 0 0 -9.24219,2.42969 h -6.99414 v 6.81055 a 18.863269,18.741495 0 0 0 -2.62696,9.50195 18.863269,18.741495 0 0 0 2.62696,9.49609 v 6.63281 h 6.66992 a 18.863269,18.741495 0 0 0 9.56641,2.61133 18.863269,18.741495 0 0 0 9.56054,-2.61133 h 6.85352 v -6.91992 a 18.863269,18.741495 0 0 0 2.44922,-9.20898 18.863269,18.741495 0 0 0 -2.44922,-9.18945 v -7.12305 h -7.15039 a 18.863269,18.741495 0 0 0 -9.26367,-2.42969 z m -37.089848,37.66797 a 18.863269,18.741495 0 0 0 -9.242187,2.42969 h -6.994141 v 6.81054 a 18.863269,18.741495 0 0 0 -2.626953,9.50196 18.863269,18.741495 0 0 0 2.626953,9.49609 v 6.63281 h 6.671875 a 18.863269,18.741495 0 0 0 9.564453,2.61133 18.863269,18.741495 0 0 0 9.560548,-2.61133 h 6.85547 v -6.91992 a 18.863269,18.741495 0 0 0 2.44726,-9.20898 18.863269,18.741495 0 0 0 -2.44726,-9.18555 v -7.12695 h -7.15235 a 18.863269,18.741495 0 0 0 -9.263668,-2.42969 z m -38.001953,37.2793 a 18.741495,18.741495 0 0 0 -9.18164,2.42968 H 36.78125 v 6.81055 a 18.741495,18.741495 0 0 0 -2.609375,9.50195 18.741495,18.741495 0 0 0 2.609375,9.49414 v 6.63477 h 6.626953 a 18.741495,18.741495 0 0 0 9.503906,2.61133 18.741495,18.741495 0 0 0 9.5,-2.61133 h 6.810547 v -6.92188 a 18.741495,18.741495 0 0 0 2.431641,-9.20703 18.741495,18.741495 0 0 0 -2.431641,-9.1875 v -7.125 h -7.103515 a 18.741495,18.741495 0 0 0 -9.207032,-2.42968 z"
         transform="matrix(6.3615694,0,0,6.3615694,-937.78068,-1863.2296)"
         id="circle3743"
         inkscape:connector-curvature="0" />
    </g>
    <g
       transform="matrix(0.04186113,0,0,0.04159089,39.033673,126.43894)"
       id="g3753"
       style="fill:#ffeeaa;fill-opacity:1">
      <path
         style="opacity:1;fill:#ffeeaa;fill-opacity:1;stroke:none;stroke-width:0.33901498;stroke-miterlimit:4;stroke-dasharray:none;stroke-dashoffset:30.23622131;stroke-opacity:1;paint-order:fill markers stroke"
         d="m 278.61328,152.05078 a 18.863269,18.741495 0 0 0 -9.24414,2.43164 h -6.99219 v 6.8125 a 18.863269,18.741495 0 0 0 -2.62695,9.49805 18.863269,18.741495 0 0 0 2.62695,9.49805 v 6.63281 h 6.67383 a 18.863269,18.741495 0 0 0 9.5625,2.61133 18.863269,18.741495 0 0 0 9.56055,-2.61133 h 6.85547 v -6.92188 a 18.863269,18.741495 0 0 0 2.44726,-9.20898 18.863269,18.741495 0 0 0 -2.44726,-9.18359 v -7.12696 h -7.14844 a 18.863269,18.741495 0 0 0 -9.26758,-2.43164 z m -37.66797,37.5293 a 18.741495,18.741495 0 0 0 -9.18359,2.42969 h -6.94727 v 6.81054 a 18.741495,18.741495 0 0 0 -2.61133,9.50196 18.741495,18.741495 0 0 0 2.61133,9.49609 v 6.63281 h 6.62696 a 18.741495,18.741495 0 0 0 9.5039,2.61133 18.741495,18.741495 0 0 0 9.5,-2.61133 h 6.81055 v -6.92187 a 18.741495,18.741495 0 0 0 2.43164,-9.20703 18.741495,18.741495 0 0 0 -2.43164,-9.1875 v -7.125 h -7.10547 a 18.741495,18.741495 0 0 0 -9.20508,-2.42969 z m -37.58008,37.51562 a 18.863269,18.741495 0 0 0 -9.24023,2.42969 h -6.99609 v 6.8125 a 18.863269,18.741495 0 0 0 -2.62696,9.49805 18.863269,18.741495 0 0 0 2.62696,9.49804 v 6.63282 h 6.67382 a 18.863269,18.741495 0 0 0 9.5625,2.61132 18.863269,18.741495 0 0 0 9.5625,-2.61132 h 6.85352 v -6.91992 a 18.863269,18.741495 0 0 0 2.44727,-9.21094 18.863269,18.741495 0 0 0 -2.44727,-9.18555 v -7.125 h -7.14648 a 18.863269,18.741495 0 0 0 -9.26954,-2.42969 z m -37.08789,37.58399 a 18.863269,18.741495 0 0 0 -9.24218,2.42969 h -6.99414 v 6.81054 a 18.863269,18.741495 0 0 0 -2.62696,9.50196 18.863269,18.741495 0 0 0 2.62696,9.49609 v 6.63281 h 6.66992 a 18.863269,18.741495 0 0 0 9.5664,2.61133 18.863269,18.741495 0 0 0 9.56055,-2.61133 h 6.85352 v -6.91992 a 18.863269,18.741495 0 0 0 2.44921,-9.20898 18.863269,18.741495 0 0 0 -2.44921,-9.18946 v -7.12304 h -7.15039 a 18.863269,18.741495 0 0 0 -9.26368,-2.42969 z m -38.16796,37.02929 a 18.741495,18.741495 0 0 0 -9.1836,2.42969 h -6.94726 v 6.81055 a 18.741495,18.741495 0 0 0 -2.61133,9.50195 18.741495,18.741495 0 0 0 2.61133,9.4961 v 6.63281 h 6.62695 a 18.741495,18.741495 0 0 0 9.50391,2.61133 18.741495,18.741495 0 0 0 9.5,-2.61133 h 6.80859 v -6.91797 a 18.741495,18.741495 0 0 0 2.43359,-9.21094 18.741495,18.741495 0 0 0 -2.43359,-9.18945 v -7.12305 h -7.10352 a 18.741495,18.741495 0 0 0 -9.20507,-2.42969 z m -37.537114,37.84766 a 18.863269,18.741495 0 0 0 -9.242188,2.42969 h -6.99414 v 6.81055 a 18.863269,18.741495 0 0 0 -2.626954,9.50195 18.863269,18.741495 0 0 0 2.626954,9.49609 v 6.63281 h 6.669921 a 18.863269,18.741495 0 0 0 9.566407,2.61133 18.863269,18.741495 0 0 0 9.560544,-2.61133 h 6.85352 v -6.91992 a 18.863269,18.741495 0 0 0 2.44922,-9.20898 18.863269,18.741495 0 0 0 -2.44922,-9.18945 v -7.12305 h -7.150392 a 18.863269,18.741495 0 0 0 -9.263672,-2.42969 z m -37.421875,37.41797 a 18.863269,18.741495 0 0 0 -9.246094,2.43164 h -6.990235 v 6.80859 a 18.863269,18.741495 0 0 0 -2.626953,9.50196 18.863269,18.741495 0 0 0 2.626953,9.49609 v 6.63281 h 6.667969 a 18.863269,18.741495 0 0 0 9.56836,2.61328 18.863269,18.741495 0 0 0 9.560547,-2.61328 h 6.853515 v -6.91992 a 18.863269,18.741495 0 0 0 2.449219,-9.20898 18.863269,18.741495 0 0 0 -2.449219,-9.1875 v -7.12305 h -7.146484 a 18.863269,18.741495 0 0 0 -9.267578,-2.43164 z m -37.669922,37.5293 a 18.741495,18.741495 0 0 0 -9.1816409,2.42968 h -6.94921872 v 6.81055 a 18.741495,18.741495 0 0 0 -2.60937498,9.50195 18.741495,18.741495 0 0 0 2.60937498,9.49414 V 449.375 H 5.9765625 a 18.741495,18.741495 0 0 0 9.5039065,2.61133 18.741495,18.741495 0 0 0 9.5,-2.61133 h 6.810547 v -6.92188 a 18.741495,18.741495 0 0 0 2.43164,-9.20703 18.741495,18.741495 0 0 0 -2.43164,-9.1875 v -7.125 H 24.6875 a 18.741495,18.741495 0 0 0 -9.207031,-2.42968 z"
         transform="matrix(6.3205015,0,0,6.3615694,-932.45627,-1624.4893)"
         id="circle3749"
         inkscape:connector-curvature="0" />
    </g>
    <g
       id="g3759"
       transform="matrix(0.04186113,0,0,0.04159089,38.943072,116.47267)"
       style="fill:#f4eed7">
      <path
         style="opacity:1;fill:#f4eed7;fill-opacity:1;stroke:none;stroke-width:0.33901498;stroke-miterlimit:4;stroke-dasharray:none;stroke-dashoffset:30.23622131;stroke-opacity:1;paint-order:fill markers stroke"
         d="m 278.27148,114.38477 a 18.863269,18.741495 0 0 0 -9.24414,2.42968 h -6.99218 v 6.81055 a 18.863269,18.741495 0 0 0 -2.62696,9.5 18.863269,18.741495 0 0 0 2.62696,9.49805 v 6.63281 h 6.67382 a 18.863269,18.741495 0 0 0 9.5625,2.61133 18.863269,18.741495 0 0 0 9.56055,-2.61133 h 6.85547 v -6.91992 a 18.863269,18.741495 0 0 0 2.44727,-9.21094 18.863269,18.741495 0 0 0 -2.44727,-9.18359 v -7.12696 h -7.14844 a 18.863269,18.741495 0 0 0 -9.26758,-2.42968 z m -37.08984,37.66601 a 18.863269,18.741495 0 0 0 -9.24414,2.43164 h -6.99219 v 6.81055 a 18.863269,18.741495 0 0 0 -2.62695,9.5 18.863269,18.741495 0 0 0 2.62695,9.49805 v 6.63281 h 6.67383 a 18.863269,18.741495 0 0 0 9.5625,2.61133 18.863269,18.741495 0 0 0 9.56055,-2.61133 h 6.85547 v -6.92188 a 18.863269,18.741495 0 0 0 2.44726,-9.20898 18.863269,18.741495 0 0 0 -2.44726,-9.18359 v -7.12696 h -7.14844 a 18.863269,18.741495 0 0 0 -9.26758,-2.43164 z m -38,37.2793 a 18.741495,18.741495 0 0 0 -9.1875,2.43164 h -6.94531 v 6.8125 a 18.741495,18.741495 0 0 0 -2.60938,9.49805 18.741495,18.741495 0 0 0 2.60938,9.49414 v 6.63476 h 6.62695 a 18.741495,18.741495 0 0 0 9.50586,2.61328 18.741495,18.741495 0 0 0 9.5,-2.61328 h 6.80859 v -6.91797 a 18.741495,18.741495 0 0 0 2.43165,-9.21093 18.741495,18.741495 0 0 0 -2.43165,-9.1875 v -7.12305 h -7.10156 a 18.741495,18.741495 0 0 0 -9.20703,-2.43164 z m -37.24805,37.68164 a 18.863269,18.741495 0 0 0 -9.24023,2.42969 h -6.99609 v 6.8125 a 18.863269,18.741495 0 0 0 -2.62696,9.5 18.863269,18.741495 0 0 0 2.62696,9.49609 v 6.63281 h 6.67187 a 18.863269,18.741495 0 0 0 9.56445,2.61133 18.863269,18.741495 0 0 0 9.5625,-2.61133 h 6.85352 v -6.91992 a 18.863269,18.741495 0 0 0 2.44727,-9.20898 18.863269,18.741495 0 0 0 -2.44727,-9.1875 v -7.125 h -7.15039 a 18.863269,18.741495 0 0 0 -9.26563,-2.42969 z m -37.58789,37.16992 a 18.863269,18.741495 0 0 0 -9.24414,2.42969 h -6.99218 v 6.81055 a 18.863269,18.741495 0 0 0 -2.62696,9.5 18.863269,18.741495 0 0 0 2.62696,9.49804 v 6.63281 h 6.67382 a 18.863269,18.741495 0 0 0 9.5625,2.61133 18.863269,18.741495 0 0 0 9.56055,-2.61133 h 6.85547 v -6.91992 a 18.863269,18.741495 0 0 0 2.44726,-9.21093 18.863269,18.741495 0 0 0 -2.44726,-9.1836 v -7.12695 h -7.14844 a 18.863269,18.741495 0 0 0 -9.26758,-2.42969 z m -37.667966,37.44531 a 18.741495,18.741495 0 0 0 -9.185546,2.42969 h -6.945313 v 6.80859 a 18.741495,18.741495 0 0 0 -2.611328,9.50196 18.741495,18.741495 0 0 0 2.611328,9.5 v 6.63086 h 6.628906 a 18.741495,18.741495 0 0 0 9.501953,2.61133 18.741495,18.741495 0 0 0 9.498046,-2.61133 h 6.81055 v -6.91797 a 18.741495,18.741495 0 0 0 2.43359,-9.21289 18.741495,18.741495 0 0 0 -2.43359,-9.1875 v -7.12305 h -7.101564 a 18.741495,18.741495 0 0 0 -9.207032,-2.42969 z m -37.871093,37.67969 a 18.863269,18.741495 0 0 0 -9.244141,2.43164 h -6.992188 v 6.8125 a 18.863269,18.741495 0 0 0 -2.626953,9.49805 18.863269,18.741495 0 0 0 2.626953,9.49805 v 6.63085 h 6.669922 a 18.863269,18.741495 0 0 0 9.566407,2.61329 18.863269,18.741495 0 0 0 9.5625,-2.61329 h 6.853515 v -6.91992 a 18.863269,18.741495 0 0 0 2.447266,-9.20898 18.863269,18.741495 0 0 0 -2.447266,-9.18555 v -7.125 h -7.148437 a 18.863269,18.741495 0 0 0 -9.267578,-2.43164 z m -37.089844,37.66797 a 18.863269,18.741495 0 0 0 -9.2441408,2.43164 h -6.99023432 v 6.80859 a 18.863269,18.741495 0 0 0 -2.62890628,9.50196 18.863269,18.741495 0 0 0 2.62890628,9.49609 v 6.63281 H 6.1503906 a 18.863269,18.741495 0 0 0 9.5664064,2.61328 18.863269,18.741495 0 0 0 9.5625,-2.61328 h 6.853515 v -6.91992 a 18.863269,18.741495 0 0 0 2.447266,-9.20898 18.863269,18.741495 0 0 0 -2.447266,-9.1875 v -7.12305 h -7.146484 a 18.863269,18.741495 0 0 0 -9.269531,-2.43164 z"
         transform="matrix(6.3205015,0,0,6.3615694,-930.29194,-1384.8631)"
         id="circle3755"
         inkscape:connector-curvature="0" />
    </g>
    <g
       transform="matrix(0.04159089,0,0,0.04159089,48.906964,136.39036)"
       id="g3765"
       style="fill:#c8ab37;fill-opacity:1" />
    <g
       id="g3771"
       transform="matrix(0.04186113,0,0,0.04159089,48.937504,126.46095)"
       style="fill:#decd87;fill-opacity:1" />
    <g
       transform="matrix(0.04186113,0,0,0.04159089,48.846902,116.49467)"
       id="g3777"
       style="fill:#ffeeaa;fill-opacity:1" />
    <g
       id="g3783"
       transform="matrix(0.04159089,0,0,0.04159089,19.063421,166.14587)"
       style="fill:#c8ab37;fill-opacity:1" />
    <g
       transform="matrix(0.04186113,0,0,0.04159089,19.093961,156.21646)"
       id="g3789"
       style="fill:#decd87;fill-opacity:1" />
    <g
       id="g3795"
       transform="matrix(0.04186113,0,0,0.04159089,19.003359,146.25018)"
       style="fill:#ffeeaa;fill-opacity:1" />
    <g
       transform="matrix(0.04159089,0,0,0.04159089,28.967251,166.14587)"
       id="g3801"
       style="fill:#a0892c;fill-opacity:1" />
    <g
       id="g3807"
       transform="matrix(0.04186113,0,0,0.04159089,28.997792,156.21645)"
       style="fill:#c8ab37;fill-opacity:1" />
    <g
       transform="matrix(0.04186113,0,0,0.04159089,28.90719,146.25018)"
       id="g3813"
       style="fill:#decd87;fill-opacity:1" />
    <g
       id="g3819"
       transform="matrix(0.04159089,0,0,0.04159089,19.063421,136.2143)"
       style="fill:#f4eed7" />
    <g
       transform="matrix(0.04186113,0,0,0.04159089,19.093961,126.28488)"
       id="g3825"
       style="fill:#d5f6ff">
      <path
         style="opacity:1;fill:#d5f6ff;fill-opacity:1;stroke:none;stroke-width:0.33901498;stroke-miterlimit:4;stroke-dasharray:none;stroke-dashoffset:30.23622131;stroke-opacity:1;paint-order:fill markers stroke"
         d="m 278.37695,76.537109 a 18.741495,18.741495 0 0 0 -9.18359,2.429688 h -6.94727 v 6.810547 a 18.741495,18.741495 0 0 0 -2.61132,9.5 18.741495,18.741495 0 0 0 2.61132,9.498046 v 6.63281 h 6.62891 a 18.741495,18.741495 0 0 0 9.50195,2.61133 18.741495,18.741495 0 0 0 9.5,-2.61133 h 6.81055 v -6.92187 a 18.741495,18.741495 0 0 0 2.43164,-9.208986 18.741495,18.741495 0 0 0 -2.43164,-9.185547 v -7.125 h -7.10156 a 18.741495,18.741495 0 0 0 -9.20899,-2.429688 z m -37.53711,37.847661 a 18.863269,18.741495 0 0 0 -9.24414,2.42968 h -6.99218 v 6.81055 a 18.863269,18.741495 0 0 0 -2.62696,9.5 18.863269,18.741495 0 0 0 2.62696,9.49805 v 6.63281 h 6.67187 a 18.863269,18.741495 0 0 0 9.56445,2.61133 18.863269,18.741495 0 0 0 9.56055,-2.61133 h 6.85547 v -6.92383 a 18.863269,18.741495 0 0 0 2.44726,-9.20703 18.863269,18.741495 0 0 0 -2.44726,-9.18359 v -7.12696 h -7.14844 a 18.863269,18.741495 0 0 0 -9.26758,-2.42968 z m -37.42187,37.41796 a 18.863269,18.741495 0 0 0 -9.24219,2.42969 h -6.99414 v 6.81055 a 18.863269,18.741495 0 0 0 -2.62695,9.5 18.863269,18.741495 0 0 0 2.62695,9.49805 v 6.63281 h 6.67188 a 18.863269,18.741495 0 0 0 9.56445,2.61133 18.863269,18.741495 0 0 0 9.56055,-2.61133 h 6.85351 v -6.91992 a 18.863269,18.741495 0 0 0 2.44922,-9.21094 18.863269,18.741495 0 0 0 -2.44922,-9.1875 v -7.12305 h -7.14648 a 18.863269,18.741495 0 0 0 -9.26758,-2.42969 z M 165.75,189.33008 a 18.741495,18.741495 0 0 0 -9.1875,2.43164 h -6.94531 v 6.8125 a 18.741495,18.741495 0 0 0 -2.60938,9.49805 18.741495,18.741495 0 0 0 2.60938,9.49414 v 6.63476 h 6.62695 a 18.741495,18.741495 0 0 0 9.50586,2.61328 18.741495,18.741495 0 0 0 9.5,-2.61328 h 6.80859 v -6.91797 a 18.741495,18.741495 0 0 0 2.43164,-9.21093 18.741495,18.741495 0 0 0 -2.43164,-9.1875 v -7.12305 h -7.10156 A 18.741495,18.741495 0 0 0 165.75,189.33008 Z m -37.74609,37.18359 a 18.863269,18.741495 0 0 0 -9.24219,2.42969 h -6.99414 v 6.81055 a 18.863269,18.741495 0 0 0 -2.62696,9.5 18.863269,18.741495 0 0 0 2.62696,9.49804 v 6.63282 h 6.67187 a 18.863269,18.741495 0 0 0 9.56446,2.61132 18.863269,18.741495 0 0 0 9.56054,-2.61132 h 6.85352 v -6.91993 a 18.863269,18.741495 0 0 0 2.44922,-9.21093 18.863269,18.741495 0 0 0 -2.44922,-9.1875 v -7.12305 h -7.14649 a 18.863269,18.741495 0 0 0 -9.26757,-2.42969 z m -37.089848,37.58399 a 18.863269,18.741495 0 0 0 -9.242187,2.42968 h -6.994141 v 6.81055 a 18.863269,18.741495 0 0 0 -2.626953,9.50195 18.863269,18.741495 0 0 0 2.626953,9.4961 v 6.63281 h 6.671875 a 18.863269,18.741495 0 0 0 9.564453,2.61133 18.863269,18.741495 0 0 0 9.560548,-2.61133 h 6.85547 v -6.91992 a 18.863269,18.741495 0 0 0 2.44726,-9.20899 18.863269,18.741495 0 0 0 -2.44726,-9.18554 v -7.12696 h -7.15235 a 18.863269,18.741495 0 0 0 -9.263668,-2.42968 z m -38.001953,37.36132 a 18.741495,18.741495 0 0 0 -9.183593,2.43164 H 36.78125 v 6.81055 a 18.741495,18.741495 0 0 0 -2.609375,9.5 18.741495,18.741495 0 0 0 2.609375,9.4961 v 6.63281 h 6.626953 a 18.741495,18.741495 0 0 0 9.503906,2.61328 18.741495,18.741495 0 0 0 9.501953,-2.61328 h 6.808594 v -6.92188 a 18.741495,18.741495 0 0 0 2.431641,-9.20703 18.741495,18.741495 0 0 0 -2.431641,-9.1875 v -7.12305 h -7.101562 a 18.741495,18.741495 0 0 0 -9.208985,-2.43164 z M 15.375,339.30664 a 18.863269,18.741495 0 0 0 -9.2441406,2.43164 h -6.99218752 v 6.81055 a 18.863269,18.741495 0 0 0 -2.62695308,9.5 18.863269,18.741495 0 0 0 2.62695308,9.49805 v 6.63085 H 5.8085938 a 18.863269,18.741495 0 0 0 9.5664062,2.61329 18.863269,18.741495 0 0 0 9.5625,-2.61329 h 6.853516 v -6.91992 a 18.863269,18.741495 0 0 0 2.447265,-9.20898 18.863269,18.741495 0 0 0 -2.447265,-9.18555 v -7.125 H 24.642578 A 18.863269,18.741495 0 0 0 15.375,339.30664 Z"
         transform="matrix(6.3205015,0,0,6.3615694,-456.12627,-1620.7852)"
         id="circle3821"
         inkscape:connector-curvature="0" />
    </g>
    <g
       id="g3831"
       transform="matrix(0.04186113,0,0,0.04159089,19.003359,116.3186)"
       style="fill:#aaeeff">
      <path
         style="opacity:1;fill:#aaeeff;fill-opacity:1;stroke:none;stroke-width:0.33901498;stroke-miterlimit:4;stroke-dasharray:none;stroke-dashoffset:30.23622131;stroke-opacity:1;paint-order:fill markers stroke"
         d="m 278.61328,39.007812 a 18.863269,18.741495 0 0 0 -9.24219,2.429688 h -6.99414 V 48.25 a 18.863269,18.741495 0 0 0 -2.62695,9.5 18.863269,18.741495 0 0 0 2.62695,9.496094 v 6.632812 h 6.67188 a 18.863269,18.741495 0 0 0 9.56445,2.611328 18.863269,18.741495 0 0 0 9.56055,-2.611328 h 6.85547 V 66.958984 A 18.863269,18.741495 0 0 0 297.47656,57.75 18.863269,18.741495 0 0 0 295.0293,48.564453 V 41.4375 h -7.15235 a 18.863269,18.741495 0 0 0 -9.26367,-2.429688 z m -37.66797,37.445313 a 18.741495,18.741495 0 0 0 -9.18359,2.429687 h -6.94727 v 6.808594 a 18.741495,18.741495 0 0 0 -2.61133,9.503906 18.741495,18.741495 0 0 0 2.61133,9.496098 v 6.63281 h 6.62696 a 18.741495,18.741495 0 0 0 9.5039,2.61133 18.741495,18.741495 0 0 0 9.5,-2.61133 h 6.81055 v -6.92188 a 18.741495,18.741495 0 0 0 2.43164,-9.207028 18.741495,18.741495 0 0 0 -2.43164,-9.1875 v -7.125 h -7.10547 a 18.741495,18.741495 0 0 0 -9.20508,-2.429687 z m -37.87109,37.681645 a 18.863269,18.741495 0 0 0 -9.24024,2.42968 h -6.99609 v 6.8125 a 18.863269,18.741495 0 0 0 -2.62695,9.49805 18.863269,18.741495 0 0 0 2.62695,9.49805 v 6.63281 h 6.67383 a 18.863269,18.741495 0 0 0 9.5625,2.61133 18.863269,18.741495 0 0 0 9.5625,-2.61133 h 6.85351 v -6.91992 a 18.863269,18.741495 0 0 0 2.44727,-9.21094 18.863269,18.741495 0 0 0 -2.44727,-9.18555 v -7.125 h -7.14648 a 18.863269,18.741495 0 0 0 -9.26953,-2.42968 z m -37.08789,37.66796 a 18.863269,18.741495 0 0 0 -9.24219,2.42969 H 149.75 v 6.81055 a 18.863269,18.741495 0 0 0 -2.62695,9.5 18.863269,18.741495 0 0 0 2.62695,9.49805 v 6.63281 h 6.67188 a 18.863269,18.741495 0 0 0 9.56445,2.61133 18.863269,18.741495 0 0 0 9.56055,-2.61133 h 6.85351 v -6.91992 a 18.863269,18.741495 0 0 0 2.44922,-9.21094 18.863269,18.741495 0 0 0 -2.44922,-9.1875 v -7.12305 h -7.14648 a 18.863269,18.741495 0 0 0 -9.26758,-2.42969 z m -38.16797,36.94532 a 18.741495,18.741495 0 0 0 -9.18359,2.42968 h -6.94727 v 6.81055 a 18.741495,18.741495 0 0 0 -2.61133,9.50195 18.741495,18.741495 0 0 0 2.61133,9.49805 v 6.63086 h 6.62695 a 18.741495,18.741495 0 0 0 9.50391,2.61133 18.741495,18.741495 0 0 0 9.5,-2.61133 h 6.80859 v -6.91797 a 18.741495,18.741495 0 0 0 2.4336,-9.21094 18.741495,18.741495 0 0 0 -2.4336,-9.18945 v -7.12305 h -7.10351 a 18.741495,18.741495 0 0 0 -9.20508,-2.42968 z m -37.246094,37.68164 a 18.863269,18.741495 0 0 0 -9.242188,2.42969 h -6.99414 v 6.81054 a 18.863269,18.741495 0 0 0 -2.626954,9.50196 18.863269,18.741495 0 0 0 2.626954,9.49609 v 6.63281 h 6.669921 a 18.863269,18.741495 0 0 0 9.566407,2.61133 18.863269,18.741495 0 0 0 9.560544,-2.61133 h 6.85352 v -6.91992 a 18.863269,18.741495 0 0 0 2.44922,-9.20898 18.863269,18.741495 0 0 0 -2.44922,-9.18946 v -7.12304 h -7.150392 a 18.863269,18.741495 0 0 0 -9.263672,-2.42969 z m -37.421875,37.50195 a 18.863269,18.741495 0 0 0 -9.242188,2.42969 h -6.994141 v 6.80859 a 18.863269,18.741495 0 0 0 -2.626953,9.50196 18.863269,18.741495 0 0 0 2.626953,9.49804 v 6.63281 h 6.671876 a 18.863269,18.741495 0 0 0 9.564453,2.61133 18.863269,18.741495 0 0 0 9.560547,-2.61133 h 6.853515 v -6.91992 a 18.863269,18.741495 0 0 0 2.449219,-9.21093 18.863269,18.741495 0 0 0 -2.449219,-9.18555 v -7.125 h -7.146484 a 18.863269,18.741495 0 0 0 -9.267578,-2.42969 z m -37.669922,37.44531 a 18.741495,18.741495 0 0 0 -9.1816409,2.42969 h -6.94921872 v 6.81055 a 18.741495,18.741495 0 0 0 -2.60937498,9.5 18.741495,18.741495 0 0 0 2.60937498,9.49609 v 6.63477 H 5.9785156 a 18.741495,18.741495 0 0 0 9.5019534,2.61133 18.741495,18.741495 0 0 0 9.5,-2.61133 h 6.810547 v -6.92188 a 18.741495,18.741495 0 0 0 2.43164,-9.20898 18.741495,18.741495 0 0 0 -2.43164,-9.18555 v -7.125 h -7.101563 a 18.741495,18.741495 0 0 0 -9.208984,-2.42969 z"
         transform="matrix(6.3205015,0,0,6.3615694,-453.96192,-1381.1586)"
         id="circle3827"
         inkscape:connector-curvature="0" />
    </g>
    <g
       transform="matrix(0.04159089,0,0,0.04159089,28.967251,136.2363)"
       id="g3837"
       style="fill:#ffeeaa;fill-opacity:1" />
    <g
       id="g3843"
       transform="matrix(0.04186113,0,0,0.04159089,28.997792,126.30688)"
       style="fill:#f4eed7" />
    <g
       transform="matrix(0.04186113,0,0,0.04159089,28.90719,116.3406)"
       id="g3849"
       style="fill:#d5f6ff" />
    <g
       transform="matrix(0.04159089,0,0,0.04159089,-0.83227605,166.07985)"
       id="g3855"
       style="fill:#ffeeaa;fill-opacity:1" />
    <g
       id="g3861"
       transform="matrix(0.04186113,0,0,0.04159089,-0.8017317,156.15043)"
       style="fill:#f4eed7" />
    <g
       transform="matrix(0.04186113,0,0,0.04159089,-0.89233746,146.18415)"
       id="g3867"
       style="fill:#d5f6ff" />
    <g
       id="g3873"
       transform="matrix(0.04159089,0,0,0.04159089,9.0715546,166.07985)"
       style="fill:#decd87;fill-opacity:1" />
    <g
       transform="matrix(0.04186113,0,0,0.04159089,9.102099,156.15043)"
       id="g3879"
       style="fill:#ffeeaa;fill-opacity:1" />
    <g
       id="g3885"
       transform="matrix(0.04186113,0,0,0.04159089,9.0114932,146.18415)"
       style="fill:#f4eed7" />
    <g
       transform="matrix(0.04159089,0,0,0.04159089,-0.83227605,136.14827)"
       id="g3891"
       style="fill:#aaeeff" />
    <g
       id="g3897"
       transform="matrix(0.04186113,0,0,0.04159089,-0.8017317,126.21885)"
       style="fill:#80e5ff">
      <path
         style="opacity:1;fill:#80e5ff;fill-opacity:1;stroke:none;stroke-width:0.33901498;stroke-miterlimit:4;stroke-dasharray:none;stroke-dashoffset:30.23622131;stroke-opacity:1;paint-order:fill markers stroke"
         d="m 241.18164,38.923828 a 18.863269,18.741495 0 0 0 -9.24414,2.431641 h -6.99219 v 6.810547 a 18.863269,18.741495 0 0 0 -2.62695,9.5 18.863269,18.741495 0 0 0 2.62695,9.498046 v 6.63086 h 6.66992 a 18.863269,18.741495 0 0 0 9.56641,2.613281 18.863269,18.741495 0 0 0 9.5625,-2.613281 h 6.85352 V 66.875 a 18.863269,18.741495 0 0 0 2.44726,-9.208984 18.863269,18.741495 0 0 0 -2.44726,-9.185547 v -7.125 h -7.14844 a 18.863269,18.741495 0 0 0 -9.26758,-2.431641 z m -38,37.363281 a 18.741495,18.741495 0 0 0 -9.18359,2.429688 h -6.94922 v 6.8125 a 18.741495,18.741495 0 0 0 -2.60938,9.498047 18.741495,18.741495 0 0 0 2.60938,9.496096 v 6.63476 h 6.63086 a 18.741495,18.741495 0 0 0 9.50195,2.61133 18.741495,18.741495 0 0 0 9.49805,-2.61133 h 6.81054 v -6.91797 a 18.741495,18.741495 0 0 0 2.43165,-9.212886 18.741495,18.741495 0 0 0 -2.43165,-9.185547 v -7.125 h -7.10156 a 18.741495,18.741495 0 0 0 -9.20703,-2.429688 z m -37.53906,37.847661 a 18.863269,18.741495 0 0 0 -9.24219,2.42968 h -6.99414 v 6.8125 a 18.863269,18.741495 0 0 0 -2.62695,9.49805 18.863269,18.741495 0 0 0 2.62695,9.49805 v 6.63281 h 6.67383 a 18.863269,18.741495 0 0 0 9.5625,2.61133 18.863269,18.741495 0 0 0 9.5625,-2.61133 h 6.85351 v -6.91992 a 18.863269,18.741495 0 0 0 2.44727,-9.21094 18.863269,18.741495 0 0 0 -2.44727,-9.18555 v -7.125 h -7.14648 a 18.863269,18.741495 0 0 0 -9.26953,-2.42968 z m -37.58789,37.08593 a 18.863269,18.741495 0 0 0 -9.24414,2.42969 h -6.99219 v 6.81055 a 18.863269,18.741495 0 0 0 -2.62695,9.5 18.863269,18.741495 0 0 0 2.62695,9.49804 v 6.63282 h 6.67383 a 18.863269,18.741495 0 0 0 9.5625,2.61132 18.863269,18.741495 0 0 0 9.56054,-2.61132 h 6.85547 v -6.91992 a 18.863269,18.741495 0 0 0 2.44727,-9.21094 18.863269,18.741495 0 0 0 -2.44727,-9.1836 v -7.12695 h -7.14843 a 18.863269,18.741495 0 0 0 -9.26758,-2.42969 z m -37.667971,37.52735 a 18.741495,18.741495 0 0 0 -9.183594,2.42968 h -6.947266 v 6.81055 a 18.741495,18.741495 0 0 0 -2.611328,9.50195 18.741495,18.741495 0 0 0 2.611328,9.49805 v 6.63086 h 6.626953 a 18.741495,18.741495 0 0 0 9.503907,2.61133 18.741495,18.741495 0 0 0 9.5,-2.61133 h 6.808591 v -6.91797 a 18.741495,18.741495 0 0 0 2.43164,-9.21094 18.741495,18.741495 0 0 0 -2.43164,-9.18945 v -7.12305 h -7.103513 a 18.741495,18.741495 0 0 0 -9.205078,-2.42968 z m -37.580078,37.51562 a 18.863269,18.741495 0 0 0 -9.242188,2.42969 h -6.994141 v 6.8125 a 18.863269,18.741495 0 0 0 -2.626953,9.49805 18.863269,18.741495 0 0 0 2.626953,9.49804 v 6.63282 h 6.673829 a 18.863269,18.741495 0 0 0 9.5625,2.61132 18.863269,18.741495 0 0 0 9.560547,-2.61132 h 6.855468 v -6.91993 a 18.863269,18.741495 0 0 0 2.447266,-9.21093 18.863269,18.741495 0 0 0 -2.447266,-9.1836 v -7.12695 h -7.148437 a 18.863269,18.741495 0 0 0 -9.267578,-2.42969 z m -37.089844,37.58399 a 18.863269,18.741495 0 0 0 -9.2402345,2.42968 h -6.99414062 v 6.81055 a 18.863269,18.741495 0 0 0 -2.62890628,9.50195 18.863269,18.741495 0 0 0 2.62890628,9.4961 v 6.63281 H 6.1523438 a 18.863269,18.741495 0 0 0 9.5644532,2.61133 18.863269,18.741495 0 0 0 9.5625,-2.61133 h 6.853515 v -6.91992 a 18.863269,18.741495 0 0 0 2.447266,-9.20899 18.863269,18.741495 0 0 0 -2.447266,-9.1875 v -7.125 h -7.15039 a 18.863269,18.741495 0 0 0 -9.265625,-2.42968 z"
         transform="matrix(6.3205015,0,0,6.3615694,19.152175,-1619.1975)"
         id="circle3893"
         inkscape:connector-curvature="0" />
    </g>
    <g
       transform="matrix(0.04186113,0,0,0.04159089,-0.89233746,116.25259)"
       id="g3903"
       style="fill:#2ad4ff">
      <path
         style="opacity:1;fill:#2ad4ff;fill-opacity:1;stroke:none;stroke-width:0.33901498;stroke-miterlimit:4;stroke-dasharray:none;stroke-dashoffset:30.23622131;stroke-opacity:1;paint-order:fill markers stroke"
         d="m 203.41797,38.757812 a 18.863269,18.741495 0 0 0 -9.24219,2.429688 h -6.99414 v 6.810547 A 18.863269,18.741495 0 0 0 184.55469,57.5 a 18.863269,18.741495 0 0 0 2.62695,9.496094 v 6.632812 h 6.66992 a 18.863269,18.741495 0 0 0 9.56641,2.611328 18.863269,18.741495 0 0 0 9.56055,-2.611328 h 6.85351 V 66.708984 A 18.863269,18.741495 0 0 0 222.28125,57.5 18.863269,18.741495 0 0 0 219.83203,48.310547 V 41.1875 h -7.15039 a 18.863269,18.741495 0 0 0 -9.26367,-2.429688 z M 165.75,76.203125 a 18.741495,18.741495 0 0 0 -9.18359,2.429687 h -6.94922 v 6.8125 a 18.741495,18.741495 0 0 0 -2.60938,9.5 18.741495,18.741495 0 0 0 2.60938,9.494138 v 6.63477 h 6.62695 a 18.741495,18.741495 0 0 0 9.50586,2.61133 18.741495,18.741495 0 0 0 9.5,-2.61133 h 6.80859 v -6.91797 a 18.741495,18.741495 0 0 0 2.43164,-9.210938 18.741495,18.741495 0 0 0 -2.43164,-9.1875 v -7.125 h -7.10351 A 18.741495,18.741495 0 0 0 165.75,76.203125 Z m -38.03711,37.349605 a 18.863269,18.741495 0 0 0 -9.24219,2.42969 h -6.99414 v 6.81055 a 18.863269,18.741495 0 0 0 -2.62695,9.5 18.863269,18.741495 0 0 0 2.62695,9.49805 v 6.63281 h 6.67188 a 18.863269,18.741495 0 0 0 9.56445,2.61133 18.863269,18.741495 0 0 0 9.56055,-2.61133 h 6.85351 v -6.91992 a 18.863269,18.741495 0 0 0 2.44922,-9.21094 18.863269,18.741495 0 0 0 -2.44922,-9.1875 v -7.12305 h -7.14648 a 18.863269,18.741495 0 0 0 -9.26758,-2.42969 z M 90.623047,151.2207 a 18.863269,18.741495 0 0 0 -9.244141,2.42969 h -6.992187 v 6.81055 a 18.863269,18.741495 0 0 0 -2.626953,9.5 18.863269,18.741495 0 0 0 2.626953,9.49804 v 6.63282 h 6.673828 a 18.863269,18.741495 0 0 0 9.5625,2.61132 18.863269,18.741495 0 0 0 9.560543,-2.61132 h 6.85547 v -6.91992 a 18.863269,18.741495 0 0 0 2.44727,-9.21094 18.863269,18.741495 0 0 0 -2.44727,-9.1836 v -7.12695 h -7.148435 a 18.863269,18.741495 0 0 0 -9.267578,-2.42969 z m -38.001953,37.27735 a 18.741495,18.741495 0 0 0 -9.183594,2.43164 h -6.947266 v 6.81054 a 18.741495,18.741495 0 0 0 -2.609375,9.5 18.741495,18.741495 0 0 0 2.609375,9.4961 v 6.63281 h 6.626954 a 18.741495,18.741495 0 0 0 9.503906,2.61328 18.741495,18.741495 0 0 0 9.501953,-2.61328 h 6.808594 v -6.92187 a 18.741495,18.741495 0 0 0 2.43164,-9.20704 18.741495,18.741495 0 0 0 -2.43164,-9.1875 v -7.12304 h -7.101563 a 18.741495,18.741495 0 0 0 -9.208984,-2.43164 z M 15.375,226.17969 a 18.863269,18.741495 0 0 0 -9.2460938,2.43164 h -6.99023432 v 6.81055 a 18.863269,18.741495 0 0 0 -2.62695308,9.5 18.863269,18.741495 0 0 0 2.62695308,9.49609 v 6.63281 H 5.8085938 a 18.863269,18.741495 0 0 0 9.5664062,2.61328 18.863269,18.741495 0 0 0 9.5625,-2.61328 h 6.853516 v -6.91992 a 18.863269,18.741495 0 0 0 2.447265,-9.20898 18.863269,18.741495 0 0 0 -2.447265,-9.18555 v -7.125 H 24.642578 A 18.863269,18.741495 0 0 0 15.375,226.17969 Z"
         transform="matrix(6.3205015,0,0,6.3615694,21.316612,-1379.5715)"
         id="circle3899"
         inkscape:connector-curvature="0" />
    </g>
    <g
       id="g3909"
       transform="matrix(0.04159089,0,0,0.04159089,9.0715546,136.17028)"
       style="fill:#d5f6ff" />
    <g
       transform="matrix(0.04186113,0,0,0.04159089,9.102099,126.24086)"
       id="g3915"
       style="fill:#aaeeff" />
    <g
       id="g3921"
       transform="matrix(0.04186113,0,0,0.04159089,9.0114932,116.27458)"
       style="fill:#80e5ff" />
    <g
       id="g4215"
       transform="matrix(0.04159089,0,0,0.04159089,58.821795,106.56883)"
       style="fill:#f4eed7" />
    <g
       transform="matrix(0.04186113,0,0,0.04159089,58.85234,96.639417)"
       id="g4221"
       style="fill:#d5f6ff" />
    <g
       id="g4227"
       transform="matrix(0.04186113,0,0,0.04159089,58.761734,86.673137)"
       style="fill:#aaeeff" />
    <g
       transform="matrix(0.04159089,0,0,0.04159089,68.725626,106.56883)"
       id="g4233"
       style="fill:#decd87;fill-opacity:1">
      <path
         style="opacity:1;fill:#decd87;fill-opacity:1;stroke:none;stroke-width:0.33791894;stroke-miterlimit:4;stroke-dasharray:none;stroke-dashoffset:30.23622131;stroke-opacity:1;paint-order:fill markers stroke"
         d="m 278.37695,189.58008 a 18.741495,18.741495 0 0 0 -9.18164,2.42969 h -6.94922 v 6.81054 a 18.741495,18.741495 0 0 0 -2.61132,9.50196 18.741495,18.741495 0 0 0 2.61132,9.49609 v 6.63281 h 6.62696 a 18.741495,18.741495 0 0 0 9.5039,2.61133 18.741495,18.741495 0 0 0 9.5,-2.61133 h 6.81055 v -6.92187 a 18.741495,18.741495 0 0 0 2.43164,-9.20703 18.741495,18.741495 0 0 0 -2.43164,-9.1875 v -7.125 h -7.10352 a 18.741495,18.741495 0 0 0 -9.20703,-2.42969 z"
         transform="matrix(6.3615694,0,0,6.3615694,-1652.4202,-1146.7378)"
         id="circle4229"
         inkscape:connector-curvature="0" />
    </g>
    <g
       id="g4239"
       transform="matrix(0.04186113,0,0,0.04159089,68.75617,96.639417)"
       style="fill:#d5f6ff" />
    <g
       transform="matrix(0.04186113,0,0,0.04159089,68.665565,86.673137)"
       id="g4245"
       style="fill:#aaeeff" />
    <g
       id="g4251"
       transform="matrix(0.04159089,0,0,0.04159089,58.821795,76.637256)"
       style="fill:#80e5ff" />
    <g
       transform="matrix(0.04186113,0,0,0.04159089,58.85234,66.707838)"
       id="g4257"
       style="fill:#2ad4ff" />
    <g
       id="g4263"
       transform="matrix(0.04186113,0,0,0.04159089,58.761734,56.741563)"
       style="fill:#00aad4">
      <path
         style="opacity:1;fill:#00aad4;fill-opacity:1;stroke:none;stroke-width:0.33901498;stroke-miterlimit:4;stroke-dasharray:none;stroke-dashoffset:30.23622131;stroke-opacity:1;paint-order:fill markers stroke"
         d="M 240.83984,1.2558594 A 18.863269,18.741495 0 0 0 231.5957,3.6875 h -6.99218 v 6.810547 a 18.863269,18.741495 0 0 0 -2.62696,9.5 18.863269,18.741495 0 0 0 2.62696,9.498047 v 6.630859 h 6.66796 a 18.863269,18.741495 0 0 0 9.56836,2.613281 18.863269,18.741495 0 0 0 9.5625,-2.613281 h 6.85352 v -6.921875 a 18.863269,18.741495 0 0 0 2.29883,-6.978516 18.863269,18.741495 0 0 0 2.48047,7.351563 v 6.632813 h 6.67187 a 18.863269,18.741495 0 0 0 9.56445,2.611328 18.863269,18.741495 0 0 0 9.56055,-2.611328 h 6.85547 v -6.919922 a 18.863269,18.741495 0 0 0 2.44727,-9.208985 18.863269,18.741495 0 0 0 -2.44727,-9.185547 V 3.7695312 h -7.15234 a 18.863269,18.741495 0 0 0 -9.26368,-2.4296874 18.863269,18.741495 0 0 0 -9.24218,2.4296874 h -6.99414 v 6.8105468 a 18.863269,18.741495 0 0 0 -2.47852,7.275391 18.863269,18.741495 0 0 0 -2.30078,-7.042969 v -7.125 h -7.14844 a 18.863269,18.741495 0 0 0 -9.26758,-2.4316406 z"
         transform="matrix(6.3205015,0,0,6.3615694,-1403.7302,51.295368)"
         id="circle4259"
         inkscape:connector-curvature="0" />
    </g>
    <g
       transform="matrix(0.04159089,0,0,0.04159089,68.725626,76.659266)"
       id="g4269"
       style="fill:#80e5ff" />
    <g
       id="g4275"
       transform="matrix(0.04186113,0,0,0.04159089,68.75617,66.729848)"
       style="fill:#2ad4ff" />
    <g
       transform="matrix(0.04186113,0,0,0.04159089,68.665565,56.763556)"
       id="g4281"
       style="fill:#00aad4" />
    <g
       transform="matrix(0.04159089,0,0,0.04159089,38.926103,106.50281)"
       id="g4287"
       style="fill:#d5f6ff" />
    <g
       id="g4293"
       transform="matrix(0.04186113,0,0,0.04159089,38.956643,96.573391)"
       style="fill:#aaeeff" />
    <g
       transform="matrix(0.04186113,0,0,0.04159089,38.866041,86.607112)"
       id="g4299"
       style="fill:#80e5ff" />
    <g
       id="g4305"
       transform="matrix(0.04159089,0,0,0.04159089,48.829933,106.50281)"
       style="fill:#f4eed7" />
    <g
       transform="matrix(0.04186113,0,0,0.04159089,48.860474,96.573391)"
       id="g4311"
       style="fill:#d5f6ff" />
    <g
       id="g4317"
       transform="matrix(0.04186113,0,0,0.04159089,48.769872,86.607112)"
       style="fill:#aaeeff" />
    <g
       transform="matrix(0.04159089,0,0,0.04159089,38.926103,76.571234)"
       id="g4323"
       style="fill:#2ad4ff" />
    <g
       id="g4329"
       transform="matrix(0.04186113,0,0,0.04159089,38.956643,66.641813)"
       style="fill:#00aad4">
      <path
         style="opacity:1;fill:#00aad4;fill-opacity:1;stroke:none;stroke-width:0.33901498;stroke-miterlimit:4;stroke-dasharray:none;stroke-dashoffset:30.23622131;stroke-opacity:1;paint-order:fill markers stroke"
         d="m 203.07422,1.0898438 a 18.863269,18.741495 0 0 0 -9.24414,2.4316406 h -6.99219 v 6.8105466 a 18.863269,18.741495 0 0 0 -2.62695,9.5 18.863269,18.741495 0 0 0 2.62695,9.496094 v 6.632813 h 6.67188 a 18.863269,18.741495 0 0 0 9.56445,2.611328 18.863269,18.741495 0 0 0 9.5625,-2.611328 h 6.85351 v -6.919922 a 18.863269,18.741495 0 0 0 2.44727,-9.208985 18.863269,18.741495 0 0 0 -2.44727,-9.1875 V 3.5214844 h -7.14648 A 18.863269,18.741495 0 0 0 203.07422,1.0898438 Z M 165.98633,38.675781 a 18.863269,18.741495 0 0 0 -9.24414,2.429688 H 149.75 v 6.810547 a 18.863269,18.741495 0 0 0 -2.62695,9.5 18.863269,18.741495 0 0 0 2.62695,9.498046 v 6.632813 h 6.67188 a 18.863269,18.741495 0 0 0 9.56445,2.611328 18.863269,18.741495 0 0 0 9.56055,-2.611328 h 6.85351 v -6.919922 a 18.863269,18.741495 0 0 0 2.44922,-9.210937 18.863269,18.741495 0 0 0 -2.44922,-9.1875 v -7.123047 h -7.14648 a 18.863269,18.741495 0 0 0 -9.26758,-2.429688 z m -38.16797,37.029297 a 18.741495,18.741495 0 0 0 -9.18359,2.429688 h -6.94727 v 6.808593 a 18.741495,18.741495 0 0 0 -2.61133,9.501953 18.741495,18.741495 0 0 0 2.61133,9.499998 v 6.63086 h 6.62891 a 18.741495,18.741495 0 0 0 9.50195,2.61133 18.741495,18.741495 0 0 0 9.49805,-2.61133 h 6.81054 v -6.91797 a 18.741495,18.741495 0 0 0 2.4336,-9.212888 18.741495,18.741495 0 0 0 -2.4336,-9.1875 v -7.123046 h -7.10156 a 18.741495,18.741495 0 0 0 -9.20703,-2.429688 z M 90.28125,113.55273 a 18.863269,18.741495 0 0 0 -9.242188,2.42969 h -6.99414 v 6.8086 a 18.863269,18.741495 0 0 0 -2.626953,9.50195 18.863269,18.741495 0 0 0 2.626953,9.49805 v 6.63281 h 6.671875 a 18.863269,18.741495 0 0 0 9.564453,2.61133 18.863269,18.741495 0 0 0 9.560547,-2.61133 h 6.853513 v -6.91992 a 18.863269,18.741495 0 0 0 2.44922,-9.21094 18.863269,18.741495 0 0 0 -2.44922,-9.18555 v -7.125 H 99.548828 A 18.863269,18.741495 0 0 0 90.28125,113.55273 Z M 52.857422,150.9707 a 18.863269,18.741495 0 0 0 -9.240234,2.42969 h -6.994141 v 6.80859 a 18.863269,18.741495 0 0 0 -2.628906,9.50196 18.863269,18.741495 0 0 0 2.628906,9.49804 v 6.63282 h 6.671875 a 18.863269,18.741495 0 0 0 9.5625,2.61132 18.863269,18.741495 0 0 0 9.5625,-2.61132 h 6.853516 v -6.91992 a 18.863269,18.741495 0 0 0 2.447265,-9.21094 18.863269,18.741495 0 0 0 -2.447265,-9.18555 v -7.125 h -7.146485 a 18.863269,18.741495 0 0 0 -9.269531,-2.42969 z m -37.667969,37.52735 a 18.741495,18.741495 0 0 0 -9.1835936,2.43164 h -6.94726565 v 6.81054 a 18.741495,18.741495 0 0 0 -2.60937495,9.5 18.741495,18.741495 0 0 0 2.60937495,9.4961 v 6.63281 H 5.6855469 a 18.741495,18.741495 0 0 0 9.5039061,2.61328 18.741495,18.741495 0 0 0 9.501953,-2.61328 H 31.5 v -6.92187 A 18.741495,18.741495 0 0 0 33.931641,207.24023 18.741495,18.741495 0 0 0 31.5,198.05273 v -7.12304 h -7.101562 a 18.741495,18.741495 0 0 0 -9.208985,-2.43164 z"
         transform="matrix(6.3205015,0,0,6.3615694,-930.61613,-186.74354)"
         id="circle4325"
         inkscape:connector-curvature="0" />
    </g>
    <g
       transform="matrix(0.04186113,0,0,0.04159089,38.866041,56.675546)"
       id="g4335"
       style="fill:#0088aa">
      <path
         style="opacity:1;fill:#0088aa;fill-opacity:1;stroke:none;stroke-width:0.33901498;stroke-miterlimit:4;stroke-dasharray:none;stroke-dashoffset:30.23622131;stroke-opacity:1;paint-order:fill markers stroke"
         d="M 165.64258,1.0078125 A 18.863269,18.741495 0 0 0 156.40039,3.4375 h -6.99414 V 10.25 a 18.863269,18.741495 0 0 0 -2.62695,9.498047 18.863269,18.741495 0 0 0 2.62695,9.498047 v 6.632812 h 6.67383 a 18.863269,18.741495 0 0 0 9.5625,2.611328 18.863269,18.741495 0 0 0 9.5625,-2.611328 h 6.85351 v -6.919922 a 18.863269,18.741495 0 0 0 2.44727,-9.210937 18.863269,18.741495 0 0 0 -2.44727,-9.185547 v -7.125 h -7.14648 A 18.863269,18.741495 0 0 0 165.64258,1.0078125 Z M 128.05469,38.175781 a 18.863269,18.741495 0 0 0 -9.24219,2.429688 h -6.99414 v 6.810547 a 18.863269,18.741495 0 0 0 -2.62695,9.501953 18.863269,18.741495 0 0 0 2.62695,9.496093 v 6.632813 h 6.67187 a 18.863269,18.741495 0 0 0 9.56446,2.611328 18.863269,18.741495 0 0 0 9.56054,-2.611328 h 6.85547 v -6.919922 a 18.863269,18.741495 0 0 0 2.44727,-9.208984 18.863269,18.741495 0 0 0 -2.44727,-9.185547 v -7.126953 h -7.15234 a 18.863269,18.741495 0 0 0 -9.26367,-2.429688 z M 90.386719,75.621094 a 18.741495,18.741495 0 0 0 -9.183594,2.429687 h -6.947266 v 6.810547 a 18.741495,18.741495 0 0 0 -2.611328,9.501953 18.741495,18.741495 0 0 0 2.611328,9.498049 v 6.63086 h 6.626953 a 18.741495,18.741495 0 0 0 9.503907,2.61133 18.741495,18.741495 0 0 0 9.498047,-2.61133 h 6.810544 v -6.91797 a 18.741495,18.741495 0 0 0 2.43164,-9.210939 18.741495,18.741495 0 0 0 -2.43164,-9.189453 V 78.050781 H 99.591797 A 18.741495,18.741495 0 0 0 90.386719,75.621094 Z M 52.515625,113.30273 a 18.863269,18.741495 0 0 0 -9.242187,2.42969 h -6.994141 v 6.81055 a 18.863269,18.741495 0 0 0 -2.626953,9.50195 18.863269,18.741495 0 0 0 2.626953,9.4961 v 6.63281 h 6.673828 a 18.863269,18.741495 0 0 0 9.5625,2.61133 18.863269,18.741495 0 0 0 9.560547,-2.61133 h 6.855469 v -6.91992 a 18.863269,18.741495 0 0 0 2.447265,-9.20899 18.863269,18.741495 0 0 0 -2.447265,-9.18554 v -7.12696 h -7.152344 a 18.863269,18.741495 0 0 0 -9.263672,-2.42969 z M 15.425781,150.9707 a 18.863269,18.741495 0 0 0 -9.2402341,2.42969 h -6.99609378 v 6.8125 a 18.863269,18.741495 0 0 0 -2.62695312,9.49805 18.863269,18.741495 0 0 0 2.62695312,9.49804 v 6.63282 H 5.8632812 a 18.863269,18.741495 0 0 0 9.5624998,2.61132 18.863269,18.741495 0 0 0 9.5625,-2.61132 h 6.853516 v -6.91992 a 18.863269,18.741495 0 0 0 2.447265,-9.21094 18.863269,18.741495 0 0 0 -2.447265,-9.18555 v -7.125 h -7.146485 a 18.863269,18.741495 0 0 0 -9.269531,-2.42969 z"
         transform="matrix(6.3205015,0,0,6.3615694,-928.45179,52.882663)"
         id="circle4331"
         inkscape:connector-curvature="0" />
    </g>
    <g
       id="g4341"
       transform="matrix(0.04159089,0,0,0.04159089,48.829933,76.59324)"
       style="fill:#80e5ff" />
    <g
       transform="matrix(0.04186113,0,0,0.04159089,48.860474,66.663823)"
       id="g4347"
       style="fill:#2ad4ff" />
    <g
       id="g4353"
       transform="matrix(0.04186113,0,0,0.04159089,48.769872,56.697539)"
       style="fill:#00aad4" />
    <g
       transform="matrix(0.04159089,0,0,0.04159089,18.98639,106.34875)"
       id="g4359"
       style="fill:#80e5ff" />
    <g
       id="g4365"
       transform="matrix(0.04186113,0,0,0.04159089,19.01693,96.41933)"
       style="fill:#2ad4ff" />
    <g
       transform="matrix(0.04186113,0,0,0.04159089,18.926329,86.453055)"
       id="g4371"
       style="fill:#00aad4" />
    <g
       id="g4377"
       transform="matrix(0.04159089,0,0,0.04159089,28.890221,106.34875)"
       style="fill:#aaeeff" />
    <g
       transform="matrix(0.04186113,0,0,0.04159089,28.920761,96.41933)"
       id="g4383"
       style="fill:#80e5ff" />
    <g
       id="g4389"
       transform="matrix(0.04186113,0,0,0.04159089,28.83016,86.453051)"
       style="fill:#2ad4ff" />
    <g
       transform="matrix(0.04159089,0,0,0.04159089,18.98639,76.417173)"
       id="g4395"
       style="fill:#0088aa" />
    <g
       id="g4401"
       transform="matrix(0.04186113,0,0,0.04159089,19.01693,66.487756)"
       style="fill:#006680">
      <path
         style="opacity:1;fill:#006680;fill-opacity:1;stroke:none;stroke-width:0.33901498;stroke-miterlimit:4;stroke-dasharray:none;stroke-dashoffset:30.23622131;stroke-opacity:1;paint-order:fill markers stroke"
         d="M 127.71289,0.5078125 A 18.863269,18.741495 0 0 0 118.4707,2.9375 h -6.99414 V 9.7480469 A 18.863269,18.741495 0 0 0 108.84961,19.25 a 18.863269,18.741495 0 0 0 2.62695,9.496094 v 6.632812 h 6.66992 a 18.863269,18.741495 0 0 0 9.56641,2.611328 18.863269,18.741495 0 0 0 9.56055,-2.611328 h 6.85351 V 28.458984 A 18.863269,18.741495 0 0 0 146.57617,19.25 18.863269,18.741495 0 0 0 144.12695,10.060547 V 2.9375 h -7.15039 A 18.863269,18.741495 0 0 0 127.71289,0.5078125 Z M 90.623047,38.091797 a 18.863269,18.741495 0 0 0 -9.244141,2.431641 h -6.992187 v 6.810546 a 18.863269,18.741495 0 0 0 -2.626953,9.5 18.863269,18.741495 0 0 0 2.626953,9.498047 v 6.63086 h 6.669922 a 18.863269,18.741495 0 0 0 9.566406,2.613281 18.863269,18.741495 0 0 0 9.564453,-2.613281 h 6.85156 v -6.919922 a 18.863269,18.741495 0 0 0 2.44727,-9.208985 18.863269,18.741495 0 0 0 -2.44727,-9.183593 V 40.523438 H 99.890625 A 18.863269,18.741495 0 0 0 90.623047,38.091797 Z M 52.621094,75.455078 a 18.741495,18.741495 0 0 0 -9.181641,2.429688 h -6.949219 v 6.810546 a 18.741495,18.741495 0 0 0 -2.609375,9.5 18.741495,18.741495 0 0 0 2.609375,9.496098 v 6.63476 h 6.628907 a 18.741495,18.741495 0 0 0 9.501953,2.61133 18.741495,18.741495 0 0 0 9.5,-2.61133 h 6.810547 v -6.92187 a 18.741495,18.741495 0 0 0 2.43164,-9.208988 18.741495,18.741495 0 0 0 -2.43164,-9.185546 v -7.125 h -7.103516 a 18.741495,18.741495 0 0 0 -9.207031,-2.429688 z m -37.53711,37.847652 a 18.863269,18.741495 0 0 0 -9.2421871,2.42969 h -6.9941407 v 6.81055 a 18.863269,18.741495 0 0 0 -2.6269531,9.50195 18.863269,18.741495 0 0 0 2.6269531,9.4961 v 6.63281 h 6.6738282 a 18.863269,18.741495 0 0 0 9.5624996,2.61133 18.863269,18.741495 0 0 0 9.560547,-2.61133 H 31.5 v -6.91992 A 18.863269,18.741495 0 0 0 33.947266,132.04492 18.863269,18.741495 0 0 0 31.5,122.85938 v -7.12696 h -7.152344 a 18.863269,18.741495 0 0 0 -9.263672,-2.42969 z"
         transform="matrix(6.3205015,0,0,6.3615694,-454.28611,-183.03943)"
         id="circle4397"
         inkscape:connector-curvature="0" />
    </g>
    <g
       transform="matrix(0.04186113,0,0,0.04159089,18.926329,56.521477)"
       id="g4407"
       style="fill:#004455">
      <path
         style="opacity:1;fill:#004455;fill-opacity:1;stroke:none;stroke-width:0.33901498;stroke-miterlimit:4;stroke-dasharray:none;stroke-dashoffset:30.23622131;stroke-opacity:1;paint-order:fill markers stroke"
         d="M 90.28125,0.42578125 A 18.863269,18.741495 0 0 0 81.037109,2.8554688 h -6.992187 v 6.8085937 a 18.863269,18.741495 0 0 0 -2.626953,9.5019535 18.863269,18.741495 0 0 0 2.626953,9.498046 v 6.632813 h 6.671875 a 18.863269,18.741495 0 0 0 9.564453,2.611328 18.863269,18.741495 0 0 0 9.560547,-2.611328 h 6.853513 v -6.919922 a 18.863269,18.741495 0 0 0 2.44922,-9.210937 18.863269,18.741495 0 0 0 -2.44922,-9.1855472 v -7.125 H 99.548828 A 18.863269,18.741495 0 0 0 90.28125,0.42578125 Z M 52.857422,37.925781 a 18.863269,18.741495 0 0 0 -9.244141,2.431641 h -6.990234 v 6.808594 a 18.863269,18.741495 0 0 0 -2.628906,9.501953 18.863269,18.741495 0 0 0 2.628906,9.496093 v 6.632813 h 6.667969 a 18.863269,18.741495 0 0 0 9.566406,2.613281 18.863269,18.741495 0 0 0 9.5625,-2.613281 h 6.853516 v -6.919922 a 18.863269,18.741495 0 0 0 2.447265,-9.208984 18.863269,18.741495 0 0 0 -2.447265,-9.1875 V 40.357422 H 62.126953 A 18.863269,18.741495 0 0 0 52.857422,37.925781 Z M 15.189453,75.371094 a 18.741495,18.741495 0 0 0 -9.1855468,2.43164 h -6.94531245 v 6.810547 a 18.741495,18.741495 0 0 0 -2.60937495,9.5 18.741495,18.741495 0 0 0 2.60937495,9.494139 v 6.63477 H 5.6855469 a 18.741495,18.741495 0 0 0 9.5039061,2.61328 18.741495,18.741495 0 0 0 9.501953,-2.61328 H 31.5 v -6.92188 A 18.741495,18.741495 0 0 0 33.931641,94.113281 18.741495,18.741495 0 0 0 31.5,84.925781 v -7.123047 h -7.101562 a 18.741495,18.741495 0 0 0 -9.208985,-2.43164 z"
         transform="matrix(6.3205015,0,0,6.3615694,-452.12179,56.587055)"
         id="circle4403"
         inkscape:connector-curvature="0" />
    </g>
    <g
       id="g4413"
       transform="matrix(0.04159089,0,0,0.04159089,28.890221,76.439179)"
       style="fill:#00aad4" />
    <g
       transform="matrix(0.04186113,0,0,0.04159089,28.920761,66.509762)"
       id="g4419"
       style="fill:#0088aa" />
    <g
       id="g4425"
       transform="matrix(0.04186113,0,0,0.04159089,28.83016,56.54347)"
       style="fill:#006680" />
    <g
       id="g4431"
       transform="matrix(0.04159089,0,0,0.04159089,-0.90930654,106.28272)"
       style="fill:#00aad4" />
    <g
       transform="matrix(0.04186113,0,0,0.04159089,-0.87876219,96.353309)"
       id="g4437"
       style="fill:#0088aa" />
    <g
       id="g4443"
       transform="matrix(0.04186113,0,0,0.04159089,-0.96936794,86.38703)"
       style="fill:#006680" />
    <g
       transform="matrix(0.04159089,0,0,0.04159089,8.9945241,106.28272)"
       id="g4449"
       style="fill:#2ad4ff" />
    <g
       id="g4455"
       transform="matrix(0.04186113,0,0,0.04159089,9.0250685,96.353305)"
       style="fill:#00aad4" />
    <g
       transform="matrix(0.04186113,0,0,0.04159089,8.9344627,86.38703)"
       id="g4461"
       style="fill:#0088aa" />
    <g
       id="g4467"
       transform="matrix(0.04159089,0,0,0.04159089,-0.90930654,76.351148)"
       style="fill:#004455" />
    <g
       transform="matrix(0.04186113,0,0,0.04159089,-0.87876219,66.42173)"
       id="g4473"
       style="fill:#00222b">
      <path
         style="opacity:1;fill:#00222b;fill-opacity:1;stroke:none;stroke-width:0.33901498;stroke-miterlimit:4;stroke-dasharray:none;stroke-dashoffset:30.23622131;stroke-opacity:1;paint-order:fill markers stroke"
         d="M 52.515625,0.2578125 A 18.863269,18.741495 0 0 0 43.271484,2.6894531 H 36.279297 V 9.5 a 18.863269,18.741495 0 0 0 -2.626953,9.5 18.863269,18.741495 0 0 0 2.626953,9.498047 v 6.630859 h 6.669922 a 18.863269,18.741495 0 0 0 9.566406,2.613282 18.863269,18.741495 0 0 0 9.5625,-2.613282 h 6.853516 V 28.208984 A 18.863269,18.741495 0 0 0 71.378906,19 18.863269,18.741495 0 0 0 68.931641,9.8144531 v -7.125 H 61.783203 A 18.863269,18.741495 0 0 0 52.515625,0.2578125 Z M 15.425781,37.84375 a 18.863269,18.741495 0 0 0 -9.2402341,2.429688 h -6.99609378 v 6.8125 A 18.863269,18.741495 0 0 0 -3.4375,56.583984 a 18.863269,18.741495 0 0 0 2.62695312,9.498047 v 6.632813 H 5.8632812 a 18.863269,18.741495 0 0 0 9.5624998,2.611328 18.863269,18.741495 0 0 0 9.5625,-2.611328 h 6.853516 v -6.919922 a 18.863269,18.741495 0 0 0 2.447265,-9.210938 18.863269,18.741495 0 0 0 -2.447265,-9.185546 v -7.125 H 24.695312 A 18.863269,18.741495 0 0 0 15.425781,37.84375 Z"
         transform="matrix(6.3205015,0,0,6.3615694,20.992319,-181.45192)"
         id="circle4469"
         inkscape:connector-curvature="0" />
    </g>
    <path
       style="opacity:1;fill:#000002;fill-opacity:1;stroke:none;stroke-width:0.33901498;stroke-miterlimit:4;stroke-dasharray:none;stroke-dashoffset:30.23622131;stroke-opacity:1;paint-order:fill markers stroke"
       d="M 15.083984,0.17578125 A 18.863269,18.741495 0 0 0 5.8417969,2.6054688 h -6.9941407 v 6.8105468 a 18.863269,18.741495 0 0 0 -2.6269531,9.5000004 18.863269,18.741495 0 0 0 2.6269531,9.498046 v 6.632813 h 6.6738282 a 18.863269,18.741495 0 0 0 9.5624996,2.611328 18.863269,18.741495 0 0 0 9.560547,-2.611328 H 31.5 V 28.126953 A 18.863269,18.741495 0 0 0 33.947266,18.916016 18.863269,18.741495 0 0 0 31.5,9.7324219 V 2.6054688 H 24.351562 A 18.863269,18.741495 0 0 0 15.083984,0.17578125 Z"
       transform="matrix(0.26458333,0,0,0.26458333,0,58.874983)"
       id="circle4475"
       inkscape:connector-curvature="0" />
    <g
       transform="matrix(0.04159089,0,0,0.04159089,8.9945241,76.373154)"
       id="g4485"
       style="fill:#006680" />
    <g
       id="g4491"
       transform="matrix(0.04186113,0,0,0.04159089,9.0250685,66.443736)"
       style="fill:#004455" />
    <g
       transform="matrix(0.04186113,0,0,0.04159089,8.9344627,56.477453)"
       id="g4497"
       style="fill:#00222b" />
  </g>
</svg>
