<?xml version="1.0" encoding="UTF-8" standalone="no"?>
<!-- Created with Inkscape (http://www.inkscape.org/) -->

<svg
   xmlns:dc="http://purl.org/dc/elements/1.1/"
   xmlns:cc="http://creativecommons.org/ns#"
   xmlns:rdf="http://www.w3.org/1999/02/22-rdf-syntax-ns#"
   xmlns:svg="http://www.w3.org/2000/svg"
   xmlns="http://www.w3.org/2000/svg"
   xmlns:sodipodi="http://sodipodi.sourceforge.net/DTD/sodipodi-0.dtd"
   xmlns:inkscape="http://www.inkscape.org/namespaces/inkscape"
   version="1.1"
   id="svg112777"
   xml:space="preserve"
   width="800"
   height="800"
   viewBox="0 0 800 800"
   sodipodi:docname="turtle-2-publicdomainvectors.org.svg"
   inkscape:version="0.92.4 (5da689c313, 2019-01-14)"><metadata
     id="metadata112783"><rdf:RDF><cc:Work
         rdf:about=""><dc:format>image/svg+xml</dc:format><dc:type
           rdf:resource="http://purl.org/dc/dcmitype/StillImage" /><dc:title></dc:title></cc:Work></rdf:RDF></metadata><defs
     id="defs112781"><clipPath
       clipPathUnits="userSpaceOnUse"
       id="clipPath112793"><path
         d="M 0,600 H 600 V 0 H 0 Z"
         id="path112791"
         inkscape:connector-curvature="0" /></clipPath></defs><sodipodi:namedview
     pagecolor="#ffffff"
     bordercolor="#666666"
     borderopacity="1"
     objecttolerance="10"
     gridtolerance="10"
     guidetolerance="10"
     inkscape:pageopacity="0"
     inkscape:pageshadow="2"
     inkscape:window-width="797"
     inkscape:window-height="480"
     id="namedview112779"
     showgrid="false"
     inkscape:zoom="0.295"
     inkscape:cx="400"
     inkscape:cy="400"
     inkscape:window-x="-8"
     inkscape:window-y="-8"
     inkscape:window-maximized="1"
     inkscape:current-layer="g112785" /><g
     id="g112785"
     inkscape:groupmode="layer"
     inkscape:label="turtle-2-publicdomainvectors.org"
     transform="matrix(1.3333333,0,0,-1.3333333,0,800)"><g
       id="g112787"><g
         id="g112789"
         clip-path="url(#clipPath112793)"><path
           d="M 1.549,1.105 H 600 V 599.556 H 1.549 Z"
           style="fill:#cfb987;fill-opacity:1;fill-rule:evenodd;stroke:none"
           id="path112795"
           inkscape:connector-curvature="0" /><path
           d="m 159.436,143.983 -14.66,-37.611 38.24,13.925 c 15.125,-11.393 33.177,-19.296 53.185,-22.738 l 17.906,-3.082 c 6.9,-21.411 5.247,-30.594 20.628,-49.452 0.653,-0.8 1.612,-1.164 2.633,-1 1.021,0.166 1.815,0.816 2.182,1.783 l 1.407,3.712 c 0.276,0.73 0.827,1.241 1.577,1.46 0.75,0.219 1.489,0.088 2.115,-0.376 l 8.522,-6.316 c 0.659,-0.489 1.498,-0.536 2.208,-0.123 0.711,0.412 1.085,1.164 0.988,1.981 l -0.27,2.241 c -0.11,0.923 0.278,1.772 1.049,2.291 0.771,0.518 1.705,0.558 2.517,0.108 l 4.977,-2.757 c 0.704,-0.389 1.521,-0.337 2.169,0.142 0.649,0.477 0.939,1.241 0.776,2.029 l -0.518,2.477 c -0.193,0.931 0.143,1.835 0.9,2.412 0.756,0.577 1.716,0.662 2.562,0.229 l 6.891,-3.522 c 0.668,-0.342 1.412,-0.298 2.036,0.12 0.623,0.417 0.946,1.089 0.885,1.838 l -0.45,5.434 c -0.074,0.884 0.302,1.68 1.033,2.185 0.731,0.505 1.608,0.574 2.409,0.193 l 4.61,-2.194 c 0.689,-0.328 1.492,-0.139 1.962,0.464 0.471,0.602 0.458,1.429 -0.029,2.017 -10.365,12.523 -6.878,14.472 -13.447,28.47 28.939,3.971 55.517,17.32 77.556,39.36 l 57.687,57.686 c 19.927,19.926 32.75,43.562 37.96,69.299 28.804,5.188 41.931,29.445 66.385,49.258 0.801,0.651 1.17,1.608 1.006,2.629 -0.16,1.021 -0.807,1.818 -1.773,2.188 l -3.708,1.418 c -0.729,0.279 -1.237,0.833 -1.456,1.583 -0.216,0.75 -0.083,1.488 0.385,2.115 l 6.342,8.499 c 0.493,0.659 0.54,1.497 0.13,2.208 -0.41,0.713 -1.159,1.091 -1.975,0.996 l -2.244,-0.264 c -0.922,-0.108 -1.772,0.284 -2.286,1.056 -0.518,0.773 -0.554,1.708 -0.103,2.518 l 2.772,4.967 c 0.394,0.704 0.344,1.522 -0.132,2.171 -0.476,0.649 -1.24,0.944 -2.029,0.782 l -2.476,-0.509 c -0.933,-0.191 -1.834,0.149 -2.41,0.907 -0.576,0.759 -0.656,1.719 -0.221,2.564 l 3.544,6.878 c 0.346,0.667 0.305,1.411 -0.113,2.036 -0.416,0.624 -1.084,0.951 -1.834,0.892 L 542,351.128 c -0.885,-0.072 -1.679,0.307 -2.183,1.04 -0.501,0.732 -0.567,1.609 -0.185,2.411 l 2.211,4.601 c 0.329,0.69 0.143,1.492 -0.459,1.964 -0.601,0.471 -1.426,0.463 -2.015,-0.024 -19.478,-16.014 -26.313,-41.336 -50.606,-44.832 l -4.967,28.867 c -2.261,13.151 -6.456,25.456 -12.297,36.643 l 13.451,13.45 c 3.728,3.729 6.663,7.825 8.791,12.246 2.546,-0.324 5.429,4.302 6.409,10.073 0.982,5.771 -0.086,10.545 -2.333,11.504 l -0.158,3.282 c -0.705,14.734 -12.388,26.417 -27.123,27.123 l -2.593,0.123 c -0.714,2.403 -5.755,3.552 -11.584,2.561 -5.83,-0.991 -10.294,-3.798 -10.083,-6.322 -4.649,-2.147 -8.949,-5.177 -12.842,-9.073 l -13.862,-13.859 c -10.735,5.394 -22.468,9.288 -34.966,11.439 l -36.728,6.32 c -2.643,0.455 -5.277,0.835 -7.899,1.146 l 0.007,0.002 c -0.489,30.08 2.906,64.401 21.578,87.111 0.486,0.59 0.496,1.416 0.024,2.017 -0.472,0.601 -1.275,0.788 -1.965,0.457 l -4.602,-2.209 c -0.799,-0.384 -1.676,-0.316 -2.409,0.186 -0.733,0.502 -1.112,1.297 -1.042,2.182 l 0.434,5.436 c 0.058,0.748 -0.268,1.419 -0.892,1.835 -0.625,0.415 -1.369,0.456 -2.036,0.112 l -6.878,-3.545 c -0.846,-0.436 -1.805,-0.353 -2.565,0.222 -0.758,0.575 -1.097,1.477 -0.906,2.409 l 0.509,2.478 c 0.161,0.788 -0.132,1.552 -0.783,2.028 -0.649,0.476 -1.466,0.526 -2.17,0.133 l -4.967,-2.772 c -0.812,-0.454 -1.745,-0.415 -2.518,0.1 -0.772,0.517 -1.163,1.364 -1.056,2.287 l 0.262,2.243 c 0.096,0.816 -0.28,1.566 -0.993,1.977 -0.711,0.411 -1.55,0.361 -2.208,-0.13 l -8.5,-6.343 c -0.626,-0.467 -1.365,-0.601 -2.115,-0.384 -0.75,0.218 -1.303,0.726 -1.584,1.456 l -1.417,3.707 c -0.37,0.966 -1.166,1.612 -2.188,1.775 -1.02,0.162 -1.978,-0.205 -2.63,-1.008 -24.242,-29.92 -25.714,-73.5 -27.438,-110.115 -19.09,-6.679 -36.709,-17.836 -52.111,-33.237 l -57.686,-57.687 c -19.737,-19.735 -32.501,-43.112 -37.806,-68.563 -20.792,5.24 -51.757,29.162 -69.033,43.461 -0.586,0.487 -1.413,0.5 -2.015,0.029 -0.602,-0.469 -0.793,-1.272 -0.464,-1.962 l 2.195,-4.61 c 0.38,-0.8 0.309,-1.677 -0.194,-2.408 -0.505,-0.73 -1.3,-1.106 -2.186,-1.034 l -5.435,0.451 c -0.747,0.06 -1.42,-0.263 -1.837,-0.886 -0.418,-0.622 -0.461,-1.368 -0.119,-2.036 l 3.522,-6.891 c 0.433,-0.846 0.348,-1.807 -0.229,-2.562 -0.578,-0.755 -1.481,-1.093 -2.413,-0.898 l -2.477,0.516 c -0.787,0.163 -1.552,-0.127 -2.028,-0.775 -0.479,-0.649 -0.532,-1.466 -0.141,-2.169 l 2.756,-4.978 c 0.451,-0.813 0.409,-1.746 -0.108,-2.516 -0.52,-0.771 -1.369,-1.16 -2.291,-1.05 l -2.242,0.27 c -0.816,0.098 -1.569,-0.277 -1.981,-0.987 -0.412,-0.709 -0.365,-1.55 0.124,-2.209 l 6.315,-8.52 c 0.465,-0.628 0.597,-1.367 0.376,-2.117 -0.219,-0.75 -0.73,-1.301 -1.461,-1.577 l -3.711,-1.408 c -0.968,-0.366 -1.615,-1.161 -1.781,-2.181 -0.166,-1.022 0.199,-1.979 0.999,-2.632 22.627,-18.454 60.126,-42.246 86.498,-48.244 l 5.042,-29.3 c 3.412,-19.822 11.204,-37.722 22.427,-52.765"
           style="fill:#bda46a;fill-opacity:1;fill-rule:evenodd;stroke:none"
           id="path112797"
           inkscape:connector-curvature="0" /><path
           d="m 154.077,174.985 -22.525,-57.792 60.81,22.142 z"
           style="fill:#757516;fill-opacity:1;fill-rule:evenodd;stroke:none"
           id="path112799"
           inkscape:connector-curvature="0" /><path
           d="m 168.804,187.308 -22.525,-57.792 60.808,22.141 z"
           style="fill:#63630e;fill-opacity:1;fill-rule:evenodd;stroke:none"
           id="path112801"
           inkscape:connector-curvature="0" /><path
           d="m 294.827,138.03 c -0.391,-30.08 16.302,-53.528 35.049,-76.177 0.487,-0.589 0.5,-1.415 0.029,-2.017 -0.47,-0.603 -1.273,-0.792 -1.962,-0.464 l -4.61,2.194 c -0.801,0.381 -1.678,0.312 -2.409,-0.193 -0.731,-0.505 -1.107,-1.301 -1.033,-2.185 l 0.45,-5.434 c 0.061,-0.749 -0.262,-1.421 -0.885,-1.838 -0.624,-0.418 -1.368,-0.462 -2.036,-0.12 l -6.891,3.522 c -0.846,0.433 -1.806,0.348 -2.562,-0.229 -0.757,-0.577 -1.093,-1.481 -0.9,-2.412 l 0.518,-2.477 c 0.163,-0.788 -0.127,-1.552 -0.776,-2.029 -0.648,-0.479 -1.465,-0.531 -2.169,-0.142 l -4.977,2.757 c -0.812,0.45 -1.746,0.41 -2.517,-0.108 -0.771,-0.519 -1.159,-1.368 -1.049,-2.291 l 0.27,-2.241 c 0.097,-0.817 -0.277,-1.569 -0.988,-1.981 -0.71,-0.413 -1.549,-0.366 -2.208,0.123 l -8.522,6.316 c -0.626,0.464 -1.365,0.595 -2.115,0.376 -0.75,-0.219 -1.301,-0.73 -1.577,-1.46 l -1.407,-3.712 c -0.367,-0.967 -1.161,-1.617 -2.182,-1.783 -1.021,-0.164 -1.979,0.199 -2.633,1 -26.788,32.844 -42.027,69.164 -41.145,110.333 z"
           style="fill:#757516;fill-opacity:1;fill-rule:evenodd;stroke:none"
           id="path112803"
           inkscape:connector-curvature="0" /><path
           d="m 277.368,44.025 c -1.021,-0.164 -1.979,0.199 -2.633,1 -21.281,26.094 -35.272,54.381 -39.683,85.549 l 21.565,18.269 11.551,-3.27 c -8.353,-33.305 -8.667,-66.994 9.2,-101.548"
           style="fill:#63630e;fill-opacity:1;fill-rule:evenodd;stroke:none"
           id="path112805"
           inkscape:connector-curvature="0" /><path
           d="m 463.075,326.319 c 30.082,-0.488 53.584,16.128 76.294,34.801 0.589,0.486 1.414,0.495 2.015,0.024 0.602,-0.472 0.788,-1.274 0.459,-1.964 l -2.211,-4.601 c -0.382,-0.802 -0.316,-1.679 0.185,-2.411 0.504,-0.733 1.298,-1.112 2.183,-1.04 l 5.436,0.432 c 0.75,0.059 1.418,-0.268 1.834,-0.892 0.418,-0.625 0.459,-1.369 0.113,-2.036 l -3.544,-6.878 c -0.435,-0.845 -0.355,-1.805 0.221,-2.564 0.576,-0.758 1.477,-1.098 2.41,-0.907 l 2.476,0.509 c 0.789,0.162 1.553,-0.133 2.029,-0.782 0.476,-0.649 0.526,-1.467 0.132,-2.171 l -2.772,-4.967 c -0.451,-0.81 -0.415,-1.745 0.103,-2.518 0.514,-0.772 1.364,-1.164 2.286,-1.056 l 2.244,0.264 c 0.816,0.095 1.565,-0.283 1.975,-0.996 0.41,-0.711 0.363,-1.549 -0.13,-2.208 l -6.342,-8.499 c -0.468,-0.627 -0.601,-1.365 -0.385,-2.115 0.219,-0.75 0.727,-1.304 1.456,-1.583 l 3.708,-1.418 c 0.966,-0.37 1.613,-1.167 1.773,-2.188 0.164,-1.021 -0.205,-1.978 -1.006,-2.629 -32.933,-26.682 -69.301,-41.802 -110.466,-40.787 z"
           style="fill:#757516;fill-opacity:1;fill-rule:evenodd;stroke:none"
           id="path112807"
           inkscape:connector-curvature="0" /><path
           d="M 556.017,305.926 C 523.084,279.244 486.716,264.124 445.551,265.139 l 8.561,29.887 c 31.519,-6.981 65.898,-1.567 101.905,10.9"
           style="fill:#63630e;fill-opacity:1;fill-rule:evenodd;stroke:none"
           id="path112809"
           inkscape:connector-curvature="0" /><path
           d="m 138.474,294.383 c -30.08,-0.392 -53.529,16.303 -76.179,35.049 -0.586,0.487 -1.413,0.5 -2.015,0.029 -0.602,-0.469 -0.793,-1.272 -0.464,-1.962 l 2.195,-4.61 c 0.38,-0.8 0.309,-1.677 -0.194,-2.408 -0.505,-0.73 -1.3,-1.106 -2.186,-1.034 l -5.435,0.451 c -0.747,0.06 -1.42,-0.263 -1.837,-0.886 -0.418,-0.622 -0.461,-1.368 -0.119,-2.036 l 3.522,-6.891 c 0.433,-0.846 0.348,-1.807 -0.229,-2.562 -0.578,-0.755 -1.481,-1.093 -2.413,-0.898 l -2.477,0.516 c -0.787,0.163 -1.552,-0.127 -2.028,-0.775 -0.479,-0.649 -0.532,-1.466 -0.141,-2.169 l 2.756,-4.978 c 0.451,-0.813 0.409,-1.746 -0.108,-2.516 -0.52,-0.771 -1.369,-1.16 -2.291,-1.05 l -2.242,0.27 c -0.816,0.098 -1.569,-0.277 -1.981,-0.987 -0.412,-0.709 -0.365,-1.55 0.124,-2.209 l 6.315,-8.52 c 0.465,-0.628 0.597,-1.367 0.376,-2.117 -0.219,-0.75 -0.73,-1.301 -1.461,-1.577 l -3.711,-1.408 c -0.968,-0.366 -1.615,-1.161 -1.781,-2.181 -0.166,-1.022 0.197,-1.979 0.999,-2.632 32.846,-26.789 69.165,-42.027 110.333,-41.145 z"
           style="fill:#757516;fill-opacity:1;fill-rule:evenodd;stroke:none"
           id="path112811"
           inkscape:connector-curvature="0" /><path
           d="m 138.474,294.383 c -30.08,-0.392 -53.529,16.303 -76.179,35.049 -0.11,0.093 -0.232,0.169 -0.359,0.227 l -1.656,-0.198 c 20.979,-30.693 47.74,-52.152 77.983,-68.05 l 9.094,1.58 z"
           style="fill:#63630e;fill-opacity:1;fill-rule:evenodd;stroke:none"
           id="path112813"
           inkscape:connector-curvature="0" /><path
           d="m 326.762,462.633 c -0.489,30.079 16.13,53.581 34.802,76.291 0.486,0.59 0.496,1.416 0.024,2.017 -0.472,0.601 -1.275,0.788 -1.965,0.457 l -4.602,-2.209 c -0.799,-0.384 -1.676,-0.316 -2.409,0.186 -0.733,0.502 -1.112,1.297 -1.042,2.182 l 0.434,5.436 c 0.058,0.748 -0.268,1.419 -0.892,1.835 -0.625,0.415 -1.369,0.456 -2.036,0.112 l -6.878,-3.545 c -0.846,-0.436 -1.805,-0.353 -2.565,0.222 -0.758,0.575 -1.097,1.477 -0.906,2.409 l 0.509,2.478 c 0.161,0.788 -0.132,1.552 -0.783,2.028 -0.649,0.476 -1.466,0.526 -2.17,0.133 l -4.967,-2.772 c -0.812,-0.454 -1.745,-0.415 -2.518,0.1 -0.772,0.517 -1.163,1.364 -1.056,2.287 l 0.262,2.243 c 0.096,0.816 -0.28,1.566 -0.993,1.977 -0.711,0.411 -1.55,0.361 -2.208,-0.13 l -8.5,-6.343 c -0.626,-0.467 -1.365,-0.601 -2.115,-0.384 -0.75,0.218 -1.303,0.726 -1.584,1.456 l -1.417,3.707 c -0.37,0.966 -1.166,1.612 -2.188,1.775 -1.02,0.162 -1.979,-0.205 -2.63,-1.008 -26.682,-32.931 -41.802,-69.301 -40.786,-110.468 z"
           style="fill:#757516;fill-opacity:1;fill-rule:evenodd;stroke:none"
           id="path112815"
           inkscape:connector-curvature="0" /><path
           d="m 326.762,462.633 c -0.489,30.079 16.13,53.581 34.802,76.291 0.093,0.112 0.167,0.234 0.226,0.361 l -0.202,1.656 c -30.627,-21.079 -51.999,-47.91 -67.797,-78.204 l 1.609,-9.089 z"
           style="fill:#63630e;fill-opacity:1;fill-rule:evenodd;stroke:none"
           id="path112817"
           inkscape:connector-curvature="0" /><path
           d="m 484.436,443.173 0.179,-3.754 c 0.617,-12.892 -3.763,-24.224 -12.889,-33.351 l -32.991,-32.991 -49.166,2.353 -2.35,49.165 32.99,32.99 c 9.127,9.127 20.458,13.506 33.351,12.89 l 3.752,-0.18 c 14.735,-0.705 26.417,-12.388 27.124,-27.122"
           style="fill:#63630e;fill-opacity:1;fill-rule:evenodd;stroke:none"
           id="path112819"
           inkscape:connector-curvature="0" /><path
           d="m 389.021,386.903 -1.802,37.692 32.99,32.99 c 9.127,9.127 20.458,13.506 33.351,12.89 l 3.752,-0.18 c 8.389,-0.401 15.789,-4.363 20.74,-10.42 0.362,-1.611 0.592,-3.276 0.675,-4.981 l 0.179,-3.753 c 0.615,-12.893 -3.762,-24.225 -12.889,-33.351 l -32.993,-32.991 z"
           style="fill:#757516;fill-opacity:1;fill-rule:evenodd;stroke:none"
           id="path112821"
           inkscape:connector-curvature="0" /><path
           d="m 470.571,355.976 6.321,-36.73 c 7.847,-45.607 -5.72,-88.335 -38.445,-121.058 L 380.763,140.503 C 348.04,107.779 305.312,94.211 259.705,102.059 l -36.728,6.32 c -51.672,8.891 -90.3,47.52 -99.191,99.188 l -6.32,36.731 c -7.848,45.606 5.721,88.334 38.444,121.056 l 57.686,57.686 c 32.723,32.724 75.449,46.293 121.057,38.445 l 36.729,-6.32 c 51.67,-8.891 90.299,-47.52 99.189,-99.189"
           style="fill:#141400;fill-opacity:1;fill-rule:evenodd;stroke:none"
           id="path112823"
           inkscape:connector-curvature="0" /><path
           d="m 466.783,355.323 c -8.614,50.066 -45.986,87.44 -96.053,96.054 l -36.728,6.321 c -44.376,7.635 -85.85,-5.536 -117.689,-37.375 L 158.629,362.637 C 126.79,330.798 113.618,289.323 121.253,244.949 l 6.32,-36.728 c 8.615,-50.067 45.989,-87.44 96.054,-96.054 l 36.729,-6.32 c 44.376,-7.636 85.85,5.536 117.69,37.373 l 57.684,57.687 c 31.839,31.837 45.011,73.312 37.374,117.687 z"
           style="fill:#242400;fill-opacity:1;fill-rule:evenodd;stroke:none"
           id="path112825"
           inkscape:connector-curvature="0" /><path
           d="m 429.142,423.74 c -15.926,14.058 -35.882,23.76 -58.412,27.637 l -36.728,6.321 c -44.376,7.635 -85.85,-5.536 -117.689,-37.375 L 158.629,362.637 C 126.79,330.798 113.618,289.323 121.253,244.949 l 6.32,-36.728 c 4.095,-23.802 14.695,-44.732 30.062,-61.069 15.926,-14.06 35.882,-23.761 58.411,-27.638 l 36.73,-6.321 c 44.374,-7.635 85.848,5.536 117.688,37.375 l 57.684,57.686 c 31.839,31.839 45.011,73.313 37.376,117.687 l -6.32,36.73 c -4.096,23.801 -14.696,44.73 -30.062,61.069"
           style="fill:#333300;fill-opacity:1;fill-rule:evenodd;stroke:none"
           id="path112827"
           inkscape:connector-curvature="0" /><path
           d="m 445.653,351.687 c -7.075,41.119 -37.44,71.482 -78.558,78.558 l -36.731,6.32 c -37.507,6.454 -71.976,-4.493 -98.888,-31.404 L 173.79,347.475 c -26.912,-26.912 -37.857,-61.381 -31.404,-98.89 l 6.32,-36.729 c 7.075,-41.118 37.44,-71.482 78.557,-78.558 l 36.73,-6.319 c 37.507,-6.456 71.978,4.492 98.89,31.404 l 57.685,57.685 c 26.911,26.911 37.859,61.381 31.406,98.89 z"
           style="fill:#212100;fill-opacity:1;fill-rule:evenodd;stroke:none"
           id="path112829"
           inkscape:connector-curvature="0" /><path
           d="m 239.454,258.435 34.388,-34.389 -2.067,-35.287 -35.287,-2.067 -34.387,34.39 2.066,35.287 z m 74.574,5.422 8.426,-45.78 -45.779,8.426 -34.764,34.765 -8.428,45.779 45.78,-8.426 z m 39.998,39.998 -34.763,34.763 -45.782,8.428 8.428,-45.781 34.764,-34.764 45.779,-8.427 z m 5.421,74.575 -35.287,-2.068 -2.066,-35.286 34.389,-34.388 35.288,2.065 2.065,35.287 z m 55.082,-163.248 -48.039,41.555 -8.521,46.295 35.376,2.071 56.711,-14.903 c -0.999,-26.886 -11.888,-51.38 -32.064,-71.555 z m -50.999,-51 -36.994,52.321 -8.458,45.948 45.855,-8.441 47.948,-41.477 z m -84.48,-35.221 c 30.693,-1.53 58.679,9.419 81.257,31.998 l 0.544,0.542 -37.161,52.557 -46.192,8.503 -2.085,-35.605 z m -65.111,11.38 22.969,42.634 34.892,2.043 3.501,-55.811 c -3.531,0.291 -7.095,0.743 -10.69,1.361 l -36.728,6.321 c -4.81,0.827 -9.464,1.987 -13.944,3.452 m -57.801,57.029 c 8.93,-26.159 28.454,-46.201 54.231,-55.783 l 23.085,42.851 -33.661,33.662 z m -11.697,78.764 56.011,-19.303 -2.067,-35.268 -43.394,-20.605 c -1.112,3.728 -2.015,7.569 -2.696,11.516 l -6.32,36.728 c -1.582,9.197 -2.084,18.194 -1.534,26.932 m 35.639,72.479 -3.714,-3.714 c -18.504,-18.504 -29.196,-40.638 -31.612,-64.92 l 57.907,-19.958 35.308,2.071 -8.517,46.267 z m 49.666,49.667 -47.017,-47.016 49.239,-40.146 45.891,-8.449 -8.45,45.896 z m 64.912,35.398 25.843,-55.905 -2.063,-35.212 -46.253,8.514 -39.782,49.861 1.648,1.649 c 17.402,17.402 38.018,27.895 60.607,31.093 m 77.663,-8.211 c -1.922,0.45 -3.869,0.848 -5.845,1.188 l -36.729,6.32 c -10.699,1.841 -21.133,2.223 -31.195,1.181 l 25.003,-54.086 35.231,2.063 z m 67.12,-63.129 -43.202,-15.411 -33.944,33.945 13.643,43.677 c 31.053,-8.521 54.421,-31.459 63.503,-62.211 m 2.621,-11.268 c -0.449,2.599 -0.991,5.152 -1.63,7.659 l -42.889,-15.299 -2.051,-35.026 54.642,-14.357 c 0.013,6.636 -0.568,13.41 -1.752,20.293 z"
           style="fill:#5e5e09;fill-opacity:1;fill-rule:evenodd;stroke:none"
           id="path112831"
           inkscape:connector-curvature="0" /><path
           d="m 232.346,256.109 29.841,-29.841 -1.506,-25.713 -25.714,-1.506 -29.842,29.84 1.506,25.714 z m 70.723,9.273 6.142,-33.361 -33.362,6.14 -31.61,31.61 -6.141,33.362 33.362,-6.141 z m 39.998,39.998 -31.611,31.611 -33.36,6.14 6.14,-33.361 31.612,-31.611 33.361,-6.141 z m 9.273,70.723 29.84,-29.84 -1.506,-25.715 -25.714,-1.506 -29.839,29.842 1.505,25.713 z m 57.512,-146.119 c 16.191,16.684 26.191,36.866 28.355,59.801 l -49.895,13.114 -26.144,-1.532 6.598,-35.842 z m -49.694,-49.712 -31.178,44.092 -6.289,34.173 33.714,-6.205 40.648,-35.164 z m -78.685,-39.267 c 24.932,0.266 47.195,9.53 65.656,26.404 l -31.922,45.145 -35.346,6.507 -1.586,-27.076 z m -61.278,8.867 16.808,31.198 23.778,1.393 2.516,-40.111 c -0.597,0.091 -1.192,0.19 -1.786,0.293 l -36.73,6.32 c -1.536,0.264 -3.064,0.567 -4.586,0.907 m -59.317,48.881 c 8.186,-19.253 22.892,-34.387 41.932,-43.065 l 17.492,32.469 -26.316,26.316 z m -13.755,72.405 c 0.155,-5.268 0.703,-10.523 1.598,-15.724 l 6.321,-36.73 c 0.145,-0.837 0.299,-1.673 0.465,-2.506 l 31.66,15.032 1.5,25.611 z m 29.135,72.822 42.307,-34.495 6.573,-35.701 -25.797,-1.511 -51.053,17.595 c 3.287,20.785 13.147,38.982 27.97,54.112 m 48.573,48.58 -35.743,-35.74 41.67,-33.974 33.856,-6.232 -6.24,33.903 z m 61.306,38.155 22.791,-49.302 -1.484,-25.322 -35.644,6.561 -34.073,42.706 c 13.757,12.836 30.003,21.708 48.41,25.357 m 72.645,-5.735 -34.565,5.949 c -6.296,1.083 -12.663,1.656 -19.038,1.646 l 18.515,-40.053 25.413,1.489 z m 67.311,-53.242 c -8.771,23.041 -26.582,40.483 -49.775,48.83 l -10.208,-32.68 27.676,-27.676 z m 4.701,-17.5 -30.69,-10.949 -1.432,-24.432 39.585,-10.401 c -0.277,3.243 -0.7,6.475 -1.251,9.685 z"
           style="fill:#757516;fill-opacity:1;fill-rule:evenodd;stroke:none"
           id="path112833"
           inkscape:connector-curvature="0" /><path
           d="m 225.148,252.88 -8.766,-0.515 -0.511,-8.764 21.785,-21.787 8.764,0.513 0.515,8.766 z m 63.906,16.091 -26.029,26.026 -11.371,2.094 2.093,-11.372 26.028,-26.028 11.371,-2.093 z m 39.998,39.996 -26.029,26.029 -11.371,2.093 2.093,-11.372 26.028,-26.028 11.371,-2.091 z m 16.089,63.905 -8.763,-0.513 -0.514,-8.765 21.786,-21.786 8.765,0.513 0.514,8.765 z m 61.16,-115.225 c 7.399,9.739 12.656,20.609 15.346,32.548 l -36.862,9.688 -9.795,-0.573 3.193,-17.337 z m -46.727,-47.995 16.611,16.611 -27.725,23.984 -12.213,2.248 2.452,-13.318 z m -68.499,-45.241 c 13.368,2.01 25.619,7.16 36.613,15.098 l -22.11,31.271 -16.145,2.972 -0.701,-11.972 z m -53.657,4.632 9.959,-1.714 -0.722,11.499 -4.095,-0.241 z m -61.428,33.68 c 5.097,-7.916 11.689,-14.664 19.492,-19.935 l 6.918,12.842 -13.31,13.311 z m -16.159,59.628 3.057,-17.766 9.798,4.653 0.498,8.511 z m 15.642,73.832 c -6.589,-8.501 -11.573,-17.926 -14.6,-28.242 l 37.977,-13.088 8.957,0.525 -3.127,16.99 z m 46.037,47.138 -15.774,-15.776 28.262,-23.042 12.552,-2.31 -2.333,12.666 z m 55.303,42.221 c -8.528,-2.792 -16.424,-6.939 -23.667,-12.225 l 23.36,-29.278 16.859,-3.104 0.458,7.811 z m 63.285,-0.839 -16.341,2.813 5.571,-12.055 8.03,0.471 z m 66.178,-35.992 c -6.031,9.974 -14.353,18.165 -24.411,24.046 l -3.611,-11.558 16.574,-16.573 z m 12.32,-41.723 -8.574,-3.057 -0.332,-5.676 10.901,-2.864 z"
           style="fill:#99992c;fill-opacity:1;fill-rule:evenodd;stroke:none"
           id="path112835"
           inkscape:connector-curvature="0" /><path
           d="m 454.776,470.175 c 0.438,-2.568 -4.067,-5.477 -10.06,-6.495 -5.994,-1.019 -11.207,0.237 -11.642,2.805 -0.437,2.567 4.068,5.476 10.062,6.495 5.993,1.019 11.204,-0.237 11.64,-2.805"
           style="fill:#1a1a1a;fill-opacity:1;fill-rule:evenodd;stroke:none"
           id="path112837"
           inkscape:connector-curvature="0" /><path
           d="m 484.122,440.03 c -2.567,0.436 -5.476,-4.069 -6.494,-10.061 -1.021,-5.993 0.235,-11.207 2.804,-11.643 2.567,-0.437 5.475,4.068 6.494,10.061 1.02,5.994 -0.236,11.206 -2.804,11.643"
           style="fill:#1a1a1a;fill-opacity:1;fill-rule:evenodd;stroke:none"
           id="path112839"
           inkscape:connector-curvature="0" /></g></g></g></svg>